<?xml version="1.0" standalone="no"?>
<!DOCTYPE svg PUBLIC "-//W3C//DTD SVG 1.1//EN" "http://www.w3.org/Graphics/SVG/1.1/DTD/svg11.dtd" >
<svg xmlns="http://www.w3.org/2000/svg">
<metadata>
This is a custom SVG webfont generated by Font Squirrel.
Copyright   : Copyright  1985 1987 1997 1998 2001 Adobe Systems Incorporated  All Rights Reserved
Designer    : Herb Lubalin
Foundry URL : httpwwwadobecomtype
</metadata>
<defs>
<font id="ITCLubalinGraphStdDemi" horiz-adv-x="1187" >
<font-face units-per-em="2048" ascent="1473" descent="-575" />
<missing-glyph horiz-adv-x="614" />
<glyph unicode=" "  horiz-adv-x="614" />
<glyph unicode="&#x09;" horiz-adv-x="614" />
<glyph unicode="&#xa0;" horiz-adv-x="614" />
<glyph unicode="!" horiz-adv-x="409" d="M76 0v289h258v-289h-258zM76 438v1024h258v-1024h-258z" />
<glyph unicode="&#x22;" horiz-adv-x="819" d="M74 1462h258l-56 -588h-149zM471 1462h258l-55 -588h-150z" />
<glyph unicode="#" d="M55 489v154h273l30 209h-243v154h266l65 456h154l-63 -456h211l65 456h156l-66 -456h232v-154h-254l-29 -209h223v-154h-248l-71 -489h-156l70 489h-211l-70 -489h-156l70 489h-248zM483 643h209l31 209h-211z" />
<glyph unicode="$" d="M111 1065q0 78 27.5 147.5t76.5 125t114.5 91t143.5 46.5v215h213v-238q41 -6 69.5 -25.5t51.5 -52.5v88h192v-401h-227q-4 82 -58.5 134t-138.5 52q-78 0 -135 -47t-57 -129q0 -47 16.5 -80t45 -54.5t64.5 -35.5t77 -24q78 -20 165 -49t152 -76q86 -59 131 -146.5 t45 -191.5q0 -88 -29.5 -164t-82 -134.5t-124 -97t-157.5 -53.5v-211h-213v246l-16 2q-45 14 -68.5 28.5t-52.5 53.5v-84h-207v434h244v-11q0 -43 14 -80q16 -42 46 -73.5t71 -50t90 -18.5q86 0 146.5 53t60.5 143q0 51 -19.5 87t-51.5 60.5t-73 41t-81 28.5l-156 50 q-82 27 -146 73q-78 55 -120.5 142.5t-42.5 185.5z" />
<glyph unicode="%" horiz-adv-x="1761" d="M66 1135q0 74 28.5 139t77.5 113.5t114.5 77t139.5 28.5q76 0 142.5 -28.5t116.5 -78t79 -115t29 -141t-28 -142t-77 -116t-115.5 -78t-142.5 -28.5q-78 0 -144.5 28.5t-115.5 79t-76.5 118t-27.5 143.5zM279 1133q0 -66 43 -110t108 -44q61 0 105.5 44t44.5 105 q0 63 -44 107.5t-108 44.5q-61 0 -105 -43t-44 -104zM449 0l659 1462h201l-658 -1462h-202zM969 346q0 74 28.5 139.5t77.5 114.5t114.5 77t139.5 28q76 0 142.5 -28t116.5 -77t79 -114.5t29 -141.5t-29 -142.5t-78 -116.5t-114.5 -79t-141.5 -29q-78 0 -144.5 29t-115.5 79 t-76.5 117.5t-27.5 143.5zM1182 344.5q0 -63.5 44 -109t109 -45.5q61 0 104.5 45.5t43.5 106.5t-44 106.5t-105.5 45.5t-106.5 -43t-45 -106.5z" />
<glyph unicode="&#x26;" horiz-adv-x="1474" d="M74 395q0 76 24.5 136.5t65.5 110.5t95 91t114 78l-15 14q-68 72 -106.5 141.5t-38.5 172.5q0 80 29.5 146.5t81 114.5t120 74.5t146.5 26.5q74 0 140.5 -25.5t116.5 -71.5t79.5 -108.5t29.5 -138.5q0 -59 -18 -110.5t-50 -95.5t-75 -80.5t-90 -63.5l235 -232l144 312 h303v-228h-145l-127 -258l249 -251l-172 -170l-231 229q-84 -115 -190.5 -176.5t-249.5 -61.5q-90 0 -174 31t-148.5 87t-103.5 134t-39 172zM342 414q0 -43 17.5 -81t47 -65.5t67.5 -43t81 -15.5q94 0 150.5 49t97.5 125l-273 268q-37 -18 -70.5 -40.5t-59 -51.5t-42 -64.5 t-16.5 -80.5zM457 1142.5q0 -59.5 30.5 -101.5t71.5 -78l19 -17q25 16 51 37t47.5 45.5t36 52t14.5 60.5q0 59 -38 102t-97 43q-61 0 -98 -42t-37 -101.5z" />
<glyph unicode="'" horiz-adv-x="409" d="M74 1462h258l-56 -588h-149z" />
<glyph unicode="(" horiz-adv-x="737" d="M74 596q0 143 43 279.5t122.5 251t191.5 202.5t249 133v-305q-150 -86 -237 -235.5t-87 -323.5q0 -84 22.5 -167t64.5 -156.5t101.5 -134t135.5 -101.5v-311q-137 49 -249 136t-191.5 201.5t-122.5 250t-43 280.5z" />
<glyph unicode=")" horiz-adv-x="737" d="M74 39q76 41 135 101.5t101 134t64.5 156.5t22.5 167q0 174 -87 322.5t-236 236.5v305q137 -45 248.5 -133t191.5 -202.5t123 -251t43 -279.5q0 -145 -43 -280.5t-123 -250t-191.5 -201.5t-248.5 -136v311z" />
<glyph unicode="*" horiz-adv-x="737" d="M70 1104v131l192 -6l-112 160l112 73l107 -176l96 176l117 -69l-103 -158l189 10v-129l-187 4l105 -153l-111 -74l-100 174l-90 -174l-113 63l98 160z" />
<glyph unicode="+" horiz-adv-x="1351" d="M156 639v188h426v426h188v-426h426v-188h-426v-426h-188v426h-426z" />
<glyph unicode="," horiz-adv-x="614" d="M178 289h258v-328q0 -55 -7 -102t-42 -90q-37 -45 -77 -54.5t-93 -9.5h-39v139h27q31 0 48 11.5t24.5 30t9.5 41t2 46.5v27h-111v289z" />
<glyph unicode="-" horiz-adv-x="655" d="M66 414v248h524v-248h-524z" />
<glyph unicode="." horiz-adv-x="614" d="M178 0v289h258v-289h-258z" />
<glyph unicode="/" d="M74 -399l915 1861h182l-917 -1861h-180z" />
<glyph unicode="0" d="M66 532v410q0 119 25.5 210t109.5 179q78 80 179 125t212 45q104 0 200.5 -39t172.5 -110q94 -90 125.5 -186.5t31.5 -223.5v-410q0 -119 -26.5 -210t-110.5 -179q-78 -80 -179 -126t-214 -46q-104 0 -199.5 40t-171.5 112q-47 45 -77.5 90t-48 95t-23.5 105.5t-6 118.5z M340 528q0 -57 6 -108t41 -101q35 -51 90 -74.5t117 -23.5q66 0 123 27.5t92 85.5q29 47 34 94t5 100v414q0 57 -7 108.5t-42 100.5q-35 51 -90.5 75.5t-114.5 24.5q-66 0 -123 -28.5t-92 -85.5q-29 -47 -34 -94.5t-5 -100.5v-414z" />
<glyph unicode="1" d="M274 1229v233h486v-1229h172v-233h-615v233h172v996h-215z" />
<glyph unicode="2" d="M104 985q0 111 37 205t103.5 162.5t159 108.5t202.5 40q98 0 185.5 -38t152 -102.5t101 -151.5t36.5 -187q0 -80 -22.5 -145.5t-61.5 -121t-89 -104.5l-105 -100l-346 -318h374v156h240v-389h-960v233l526 510l60 59q32 30 57.5 63.5t42 72.5t16.5 82q0 45 -17.5 84 t-48 67.5t-70.5 44t-85 15.5q-51 0 -93 -19.5t-72 -53.5t-45 -79q-14 -40 -14 -82q0 -6 1 -12h-265z" />
<glyph unicode="3" d="M86 422h276q14 -88 77 -147.5t155 -59.5q49 0 91 18.5t75 50t51 73.5t18 92q0 57 -20.5 102t-55 76.5t-81.5 48t-101 16.5h-55l-12 -2v213h57q45 0 86 10.5t73 33t50 58t18 87.5q0 82 -52 132t-132 50q-74 0 -124 -47t-54 -123h-252q0 90 37 162.5t97.5 125t139 81 t162.5 28.5q82 0 160 -26.5t136.5 -76.5t94 -121t35.5 -159q0 -45 -11 -90t-32.5 -85t-53.5 -72.5t-73 -53.5q57 -20 103.5 -59t79 -89.5t50 -108.5t17.5 -120q0 -96 -41 -181t-110 -150q-76 -72 -163 -105t-192 -33q-100 0 -192 31t-164 88t-117 141.5t-51 190.5z" />
<glyph unicode="4" d="M20 389v213l631 860h314v-860h219v-213h-219v-156h170v-233h-611v233h170v156h-674zM317 602h377v531z" />
<glyph unicode="5" d="M57 391h287q31 -78 95.5 -123t150.5 -45q57 0 107.5 20.5t87 57.5t58 87t21.5 107.5t-22.5 107.5t-60.5 85t-88 55.5t-105 20.5q-78 0 -139.5 -38t-96.5 -105l-229 59l131 782h778v-233h-563l-57 -309q111 78 256 77q104 0 191 -39.5t151.5 -109.5t100.5 -161t36 -191 q0 -117 -45 -213.5t-122 -166t-178.5 -107.5t-213.5 -38q-98 0 -186.5 30t-158 84t-118 132t-68.5 174z" />
<glyph unicode="6" d="M61 524q0 104 36 189.5t93 171.5l394 577h305l-340 -485q33 18 61.5 25.5t67.5 7.5q100 0 185 -42t146.5 -111t96.5 -159t35 -186q0 -113 -42 -211t-115 -172t-171 -116t-213 -42q-102 0 -204.5 43t-174.5 113q-78 78 -119 183t-41 214zM330 510q0 -55 20.5 -105.5 t57 -88t87 -59t107.5 -21.5q55 0 105.5 20t87 57t59.5 85t23 104q0 57 -20.5 107t-57.5 88t-87 59.5t-108 21.5q-55 0 -105 -20.5t-88 -56t-59.5 -85t-21.5 -106.5z" />
<glyph unicode="7" d="M117 993v469h970v-235l-544 -1227h-301l565 1229h-426v-236h-264z" />
<glyph unicode="8" d="M84 426q0 123 69.5 226.5t184.5 148.5q-86 39 -134 118.5t-48 174t36.5 169t98 128t141.5 82t168 28.5q80 0 154.5 -28.5t132 -80t92.5 -122t35 -154.5q0 -96 -42 -173t-124 -128q57 -18 105 -56t81 -88t51.5 -108.5t18.5 -120.5q0 -106 -43 -193t-114.5 -148.5 t-164 -95.5t-192.5 -34q-98 0 -190.5 31t-162 89.5t-111.5 143.5t-42 191zM352 442.5q0 -49.5 19.5 -92.5t51.5 -74.5t76 -49t93 -17.5q47 0 89 19.5t72.5 51t48 73.5t17.5 89q0 49 -18.5 91t-51 74t-74.5 50.5t-91 18.5t-91 -18.5t-73 -50.5t-49.5 -73.5t-18.5 -91z M399 1085.5q0 -77.5 53.5 -133t133.5 -55.5q78 0 131 54.5t53 129.5q0 37 -14.5 72t-39 60.5t-58 41t-70.5 15.5q-78 0 -133.5 -53.5t-55.5 -131z" />
<glyph unicode="9" d="M57 965q0 109 44 206t120 170.5t175.5 116.5t207.5 43q104 0 202.5 -40t174.5 -109q86 -80 127 -183.5t41 -218.5q0 -111 -31 -190.5t-90 -169.5l-391 -590h-338l365 485q-31 -16 -63 -25t-66 -9q-104 0 -192.5 43t-152 114.5t-98.5 164t-35 192.5zM328 965 q0 -57 21.5 -108.5t58 -89.5t87 -59.5t109.5 -21.5q57 0 107.5 21.5t87.5 59.5t58.5 89t21.5 109q0 55 -22.5 104t-59.5 85t-87.5 57.5t-105.5 21.5t-105 -21.5t-88 -57.5t-60.5 -85t-22.5 -104z" />
<glyph unicode=":" horiz-adv-x="614" d="M178 0v289h258v-289h-258zM178 764v289h258v-289h-258z" />
<glyph unicode=";" horiz-adv-x="614" d="M178 0v289h258v-328q0 -55 -7 -102t-42 -90q-37 -45 -77 -54.5t-93 -9.5h-39v139h27q31 0 48 11.5t24.5 30t9.5 41t2 46.5v27h-111zM178 764v289h258v-289h-258z" />
<glyph unicode="&#x3c;" horiz-adv-x="1351" d="M113 643v180l1106 510v-188l-922 -414l922 -407v-187z" />
<glyph unicode="=" horiz-adv-x="1351" d="M156 477v191h1040v-191h-1040zM156 797v190h1040v-190h-1040z" />
<glyph unicode="&#x3e;" horiz-adv-x="1351" d="M113 137v187l921 407l-921 414v188l1106 -510v-180z" />
<glyph unicode="?" horiz-adv-x="1105" d="M74 999v11q0 98 36 185q38 91 103.5 158.5t156.5 107.5t195 40q96 0 183.5 -38t153 -103.5t104 -152.5t38.5 -185q0 -86 -23.5 -144.5t-58 -102.5t-77.5 -80t-82 -75.5t-70 -89t-41 -120.5h-258q0 65 15.5 117.5t43 98.5t64.5 87t82 82l51 47q25 23 44.5 49t30.5 56 t11 69q0 43 -16.5 83t-46 70.5t-68.5 48t-82 17.5q-102 0 -162.5 -68.5t-62.5 -167.5h-264zM434 0v289h258v-289h-258z" />
<glyph unicode="@" horiz-adv-x="1802" d="M168 721q0 160 63.5 302t173 248.5t253 168t303.5 61.5q135 0 257.5 -45t215 -126t147.5 -195.5t55 -255.5q0 -98 -24.5 -189.5t-81.5 -169.5t-147.5 -135t-188.5 -57q-68 0 -101.5 31.5t-43.5 97.5q-45 -57 -102.5 -89t-133.5 -32q-68 0 -121 26.5t-90 72.5t-55.5 104.5 t-18.5 124.5q0 86 36 173t96.5 156.5t141.5 113.5t171 44q66 0 121 -34t80 -93l22 63h147l-151 -491q-6 -20 -12 -44t-6 -46q0 -61 61 -62q25 0 52.5 11.5t53 28t47 37t35.5 38.5q53 66 76 142.5t23 158.5q0 123 -44 219.5t-121 164t-180.5 102t-220.5 34.5 q-137 0 -249.5 -44t-210.5 -142q-94 -92 -145.5 -210t-51.5 -253q0 -143 52 -261t142.5 -203t213 -131t262.5 -46q160 0 291 51.5t245 165.5l43 -92q-117 -129 -258 -186.5t-315 -57.5q-147 0 -298 50.5t-263 148.5q-57 49 -102.5 112.5t-77 135t-49 148.5t-17.5 155z M690 657q0 -72 37 -126t113 -54q45 0 80.5 17.5t63.5 46t47.5 65.5t33.5 74q16 41 28.5 94t12.5 98q0 61 -34 101.5t-99 40.5q-63 0 -115.5 -35t-89.5 -87t-57.5 -116t-20.5 -119z" />
<glyph unicode="A" horiz-adv-x="1597" d="M14 0v233h156l426 996h-162v233h490l512 -1229h155v-233h-616v205h162l-86 219h-514l-84 -219h157v-205h-596zM608 639h373l-184 502h-2z" />
<glyph unicode="B" horiz-adv-x="1228" d="M45 0v233h158v996h-158v233h649q82 0 160 -13t143 -63q72 -53 105 -127.5t33 -162.5q0 -100 -49.5 -184.5t-141.5 -127.5q123 -49 188.5 -147t65.5 -229q0 -88 -36 -170t-101 -140q-74 -66 -158 -82t-178 -16h-680zM481 244h154q49 0 104.5 4t98.5 33q41 27 61.5 69.5 t20.5 89.5q0 49 -19.5 92t-60.5 74q-45 33 -97.5 38t-105.5 5h-156v-405zM483 879h142q51 0 98 3t90 33q35 25 50.5 62t15.5 78q0 45 -18.5 83t-57.5 62.5t-85 26.5t-91 2h-144v-350z" />
<glyph unicode="C" horiz-adv-x="1556" d="M41 743.5q0 153.5 58.5 290.5t159.5 241.5t237.5 165t291.5 60.5q129 0 246 -44t207 -136v147h229v-467h-266q-31 51 -76 93.5t-98 71t-111.5 44t-117.5 15.5q-104 0 -191.5 -37t-152 -101.5t-100 -153.5t-35.5 -192q0 -98 36.5 -185t101 -153.5t151.5 -104.5t186 -38 q127 0 235.5 57.5t175.5 163.5h301q-37 -113 -107.5 -206t-165.5 -160.5t-208 -105.5t-229 -38q-147 0 -289.5 60.5t-247.5 165.5q-109 111 -165 252t-56 294.5z" />
<glyph unicode="D" horiz-adv-x="1515" d="M45 0v233h160v996h-160v233h694q154 0 277 -40t233 -152q106 -109 156.5 -249t50.5 -294q0 -141 -47 -273t-141 -237q-111 -123 -241 -170t-292 -47h-690zM483 252h219q51 0 100.5 4t94.5 18.5t85 40t77 66.5q59 70 89 163t30 183q0 98 -30 198.5t-97 172.5 q-76 76 -160 96t-184 20h-224v-962z" />
<glyph unicode="E" d="M45 0v233h160v996h-160v233h1083v-440h-278v190h-367v-364h426v-217h-426v-387h367v198h278v-442h-1083z" />
<glyph unicode="F" d="M45 0v233h160v996h-160v233h1092v-440h-279v190h-375v-374h424v-215h-424v-390h160v-233h-598z" />
<glyph unicode="G" horiz-adv-x="1597" d="M41 735q0 150 51 284t156 245q106 111 250.5 174t298.5 63q133 0 246.5 -44t213.5 -130v135h230v-430h-303q-72 94 -166 142q-96 49 -215 49q-102 0 -190.5 -38t-153 -102.5t-101 -153.5t-36.5 -189.5t36.5 -189.5t101 -155.5t151.5 -105.5t190 -39q147 0 262 75.5 t168 211.5h-541v235h850v-772h-231v225q-86 -127 -221.5 -190.5t-286.5 -63.5q-158 0 -297 60.5t-241.5 164t-162 242.5t-59.5 297z" />
<glyph unicode="H" horiz-adv-x="1515" d="M45 0v233h160v996h-160v233h596v-233h-158v-352h564v352h-158v233h594v-233h-158v-996h158v-233h-594v233h158v365h-564v-365h158v-233h-596z" />
<glyph unicode="I" horiz-adv-x="696" d="M45 0v233h160v996h-160v233h596v-233h-158v-996h158v-233h-596z" />
<glyph unicode="J" horiz-adv-x="1105" d="M25 412h290q0 -35 11.5 -67t31 -58.5t49 -42t68.5 -15.5q90 0 137 80q23 39 26 90.5t3 94.5v735h-160v233h596v-233h-157v-770q0 -49 -3.5 -93t-13.5 -86t-29.5 -82t-54.5 -79q-61 -72 -153.5 -110t-188.5 -38q-98 0 -182 32t-145.5 89.5t-95.5 137.5q-30 72 -30 160 q1 11 1 22z" />
<glyph unicode="K" horiz-adv-x="1474" d="M45 0v233h160v996h-160v233h596v-233h-158v-428l453 428h-131v233h602v-233h-125l-520 -479l547 -517h129v-233h-623v233h143l-475 453v-453h158v-233h-596z" />
<glyph unicode="L" horiz-adv-x="1146" d="M45 0v233h160v996h-160v233h596v-233h-158v-979h351v192h278v-442h-1067z" />
<glyph unicode="M" horiz-adv-x="1966" d="M37 0v233h160v996h-160v233h549l397 -1032l397 1032h549v-233h-160v-996h160v-233h-596v233h158v850l-404 -1083h-196l-416 1083v-850h170v-233h-608z" />
<glyph unicode="N" horiz-adv-x="1638" d="M45 0v233h158v996h-158v233h410l696 -979v746h-160v233h596v-233h-157v-1229h-261l-688 963v-730h160v-233h-596z" />
<glyph unicode="O" horiz-adv-x="1597" d="M41 731q0 162 60.5 302.5t166 243.5t245.5 162.5t300 59.5q156 0 294 -59.5t242.5 -162.5t165 -240.5t60.5 -293.5q0 -160 -59.5 -301t-164 -246.5t-244.5 -166t-300 -60.5q-158 0 -297 59.5t-243.5 163t-165 242.5t-60.5 297zM328 739q0 -102 36.5 -191t101 -155.5 t152 -105.5t189.5 -39t190 39t152.5 106.5t101.5 156.5t37 191q0 98 -38 185.5t-102.5 153t-151.5 103.5t-185 38q-100 0 -188 -38t-154 -102.5t-103.5 -153t-37.5 -188.5z" />
<glyph unicode="P" horiz-adv-x="1228" d="M47 0v233h158v996h-158v233h582q98 0 202.5 -18.5t186.5 -77.5q92 -68 136 -167t44 -214q0 -98 -36 -187t-105 -157q-80 -82 -171 -108.5t-202 -26.5h-201v-273h160v-233h-596zM483 758h166q53 0 100.5 7t88.5 42t60.5 81t19.5 97q0 53 -25 101.5t-68 76.5q-45 33 -91 39 t-97 6h-154v-450z" />
<glyph unicode="Q" horiz-adv-x="1761" d="M41 743q0 156 60.5 294.5t163 240.5t240.5 162.5t294 60.5q160 0 300 -59.5t244.5 -162.5t165 -241.5t60.5 -298.5q0 -129 -44 -254t-130 -223q37 -27 79 -44t89 -21v135h204v-371l-86 -6q-123 0 -237.5 35t-212.5 112q-98 -66 -203.5 -98.5t-224.5 -32.5 q-162 0 -301.5 60.5t-241.5 165t-160.5 245.5t-58.5 301zM328 782l6 -75q59 25 124.5 37t131.5 12q92 0 173 -23.5t153.5 -64.5t138 -96.5t125.5 -120.5q102 121 102 278q0 102 -37 192.5t-101.5 157t-153.5 105.5t-191 39q-98 0 -188.5 -38t-155.5 -110q-55 -59 -91 -136 t-36 -157zM389 485q66 -115 178.5 -175t241.5 -60q53 0 104.5 13t98.5 42q-92 94 -196.5 159.5t-242.5 65.5q-47 0 -95 -11t-89 -34z" />
<glyph unicode="R" horiz-adv-x="1310" d="M45 1229v233h653q109 0 203 -19.5t180 -93t130 -173t44 -211.5q0 -80 -25.5 -156t-72.5 -137.5t-114.5 -101.5t-149.5 -46l227 -291h166v-233h-342l-463 657v-424h125v-233h-561v233h158v996h-158zM481 684h152q66 0 127 9t117 50q49 39 74.5 94.5t25.5 116.5 q0 59 -24.5 114.5t-71.5 92.5q-47 39 -97.5 45t-109.5 6h-193v-528z" />
<glyph unicode="S" horiz-adv-x="1064" d="M41 1071q0 90 36 168t97.5 134t141 88t167.5 32q76 0 144.5 -26.5t115.5 -86.5v82h213v-393h-249q-2 82 -55.5 136.5t-135.5 54.5t-140.5 -48.5t-58.5 -134.5q0 -53 21.5 -88t56.5 -57.5t77 -35.5l85 -26q86 -23 164 -51t149 -82q72 -57 109 -136t37 -171q0 -98 -35 -182 t-96.5 -145.5t-146.5 -96.5t-185 -35q-86 0 -156.5 30t-124.5 95v-96h-221v434h254q0 -45 15.5 -86t43 -71.5t67.5 -48t91 -17.5q92 0 153.5 53t61.5 148q0 55 -23.5 91t-59 59.5t-80 37.5l-87.5 27q-80 23 -149.5 48t-136.5 77q-160 118 -160 319z" />
<glyph unicode="T" horiz-adv-x="1228" d="M41 1001v461h1151v-461h-221v213h-215v-981h159v-233h-598v233h160v981h-215v-213h-221z" />
<glyph unicode="U" horiz-adv-x="1433" d="M47 1229v233h569v-233h-133v-688q0 -53 6.5 -105.5t36.5 -99.5q35 -51 88.5 -77t112.5 -26q55 0 104.5 21.5t83.5 67.5q37 47 45.5 104t8.5 115v688h-133v233h569v-233h-158v-725q0 -115 -25.5 -207t-107.5 -178q-78 -82 -177 -115t-210 -33q-106 0 -202.5 29t-174.5 106 q-45 43 -72.5 90.5t-44 97.5t-22.5 104.5t-6 113.5v717h-158z" />
<glyph unicode="V" horiz-adv-x="1515" d="M14 1229v233h592v-233h-139l289 -844l309 844h-141v233h575v-233h-156l-446 -1229h-305l-420 1229h-158z" />
<glyph unicode="W" horiz-adv-x="2088" d="M14 1229v233h594v-233h-159l206 -768l265 1001h235l281 -993l196 760h-164v233h594v-233h-161l-326 -1229h-264l-271 965l-270 -965h-260l-350 1229h-146z" />
<glyph unicode="X" horiz-adv-x="1515" d="M39 0v233h143l408 508l-385 488h-150v233h602v-215h-135l236 -311l235 311h-135v215h604v-233h-147l-393 -488l405 -508h150v-233h-600v215h143l-262 334l-264 -334h145v-215h-600z" />
<glyph unicode="Y" horiz-adv-x="1392" d="M14 1229v233h566v-233h-136l246 -484l244 484h-139v233h563v-233h-146l-385 -719v-277h160v-233h-596v233h158v277l-387 719h-148z" />
<glyph unicode="Z" horiz-adv-x="1146" d="M41 0v219l696 1000h-413v-201h-248v444h997v-211l-700 -1007h475v200h256v-444h-1063z" />
<glyph unicode="[" horiz-adv-x="778" d="M84 -264v1726h610v-235h-329v-1256h329v-235h-610z" />
<glyph unicode="\" horiz-adv-x="1269" d="M221 1462h207l623 -1462h-205z" />
<glyph unicode="]" horiz-adv-x="778" d="M84 -29h330v1256h-330v235h610v-1726h-610v235z" />
<glyph unicode="^" horiz-adv-x="1351" d="M78 356l506 1106h180l510 -1106h-187l-415 908l-408 -908h-186z" />
<glyph unicode="_" horiz-adv-x="1024" d="M0 -154h1024v-102h-1024v102z" />
<glyph unicode="`" horiz-adv-x="942" d="M145 1485l101 221l549 -295l-84 -182z" />
<glyph unicode="a" horiz-adv-x="1351" d="M25 541q0 119 45 224t121.5 185t181 126t225.5 46q106 0 194.5 -47t145.5 -137v156h391v-234h-137v-627h137v-233h-391v147q-59 -92 -151.5 -134t-200.5 -42q-117 0 -219.5 45t-178 123t-119.5 181.5t-44 220.5zM283 541q0 -68 25.5 -126.5t70.5 -103.5t104.5 -70.5 t124.5 -25.5q70 0 131.5 26.5t106.5 72.5t70.5 107.5t25.5 131.5q0 68 -26.5 127t-70.5 103t-104.5 70t-128.5 26q-70 0 -130 -27t-104 -73t-69.5 -107t-25.5 -131z" />
<glyph unicode="b" horiz-adv-x="1351" d="M35 0v233h141v996h-141v233h391v-526q59 86 146 130t192 44q117 0 219 -44t179 -121t121 -179t44 -219q0 -106 -38 -206.5t-109 -178.5q-72 -80 -175.5 -129t-211.5 -49q-111 0 -207.5 45t-159.5 135v-164h-391zM416 553q0 -72 26.5 -133.5t71.5 -107.5t106.5 -71.5 t133.5 -25.5q70 0 129 27.5t103 73.5t68.5 106.5t24.5 128t-26.5 128t-71.5 105.5t-105.5 72t-128 27t-128 -26t-105.5 -71t-71.5 -105t-26.5 -128z" />
<glyph unicode="c" d="M25 547q0 113 42 218t116.5 185t175 128t216.5 48q92 0 172 -35.5t142 -101.5v105h215v-365h-234q-45 66 -116 109q-72 41 -156 41q-70 0 -129 -27t-102 -72t-68 -105.5t-25 -127.5q0 -70 26 -130.5t71 -104.5t105.5 -69.5t127.5 -25.5q80 0 153.5 40t108.5 112h279 q-25 -86 -79 -160t-128 -126t-160 -82t-176 -30q-119 0 -224.5 45t-183 123t-123.5 182.5t-46 225.5z" />
<glyph unicode="d" horiz-adv-x="1351" d="M25 547q0 115 43 217t118.5 180t176 123t217.5 45q104 0 199 -46t161 -132v295h-143v233h393v-1229h141v-233h-391v164q-61 -92 -154.5 -136t-203.5 -44q-115 0 -216.5 45t-177 122.5t-119.5 179t-44 216.5zM285 543q0 -68 25.5 -128.5t70.5 -104.5t105.5 -70.5 t127.5 -26.5q70 0 130.5 26.5t105.5 72.5t70.5 107.5t25.5 131.5q0 68 -26.5 127t-70.5 104t-103.5 71t-127.5 26q-70 0 -131 -27t-106 -72t-70.5 -106t-25.5 -131z" />
<glyph unicode="e" d="M27 543q0 121 43 227.5t119.5 185t180 124.5t226.5 46q115 0 222.5 -47t187.5 -129q82 -86 117.5 -189.5t35.5 -219.5l-8 -88h-885q12 -57 43 -105.5t75 -83.5t97.5 -54.5t112.5 -19.5q82 0 149.5 32t114.5 100h260q-33 -78 -85 -142.5t-119.5 -110.5t-146.5 -72 t-165 -26q-121 0 -225.5 44t-182 121t-122.5 181.5t-45 225.5zM264 645h664q-33 119 -127 188.5t-217 69.5q-55 0 -107.5 -20.5t-95.5 -55t-74 -82t-43 -100.5z" />
<glyph unicode="f" horiz-adv-x="655" d="M35 0v233h141v627h-141v234h141q-2 207 107.5 307t316.5 100v-223h-8q-90 0 -129 -47q-37 -45 -37 -122v-15h143v-234h-143v-627h143v-233h-534z" />
<glyph unicode="g" horiz-adv-x="1351" d="M25 549q0 113 44 215t119.5 179t176 123t215.5 46q111 0 207 -41t157 -137v160h371v-234h-141v-715q0 -63 -4.5 -119.5t-17.5 -108.5t-41 -100t-75 -96q-88 -86 -196.5 -125.5t-231.5 -39.5q-86 0 -170 21.5t-154.5 64.5t-123.5 108.5t-74 155.5h289q33 -70 103.5 -102.5 t142.5 -32.5q66 0 128 26.5t103 73.5q53 61 64.5 118.5t11.5 135.5v41q-59 -96 -149.5 -139t-200.5 -43q-117 0 -218.5 45t-175 122.5t-116.5 180t-43 217.5zM281 551q0 -70 25.5 -131.5t70.5 -106.5t106.5 -71.5t131 -26.5t131 26.5t105.5 72.5t69.5 107.5t25.5 131.5 q0 68 -26.5 128t-71.5 105t-106.5 71t-129 26t-128 -27t-105.5 -72t-71.5 -105t-26.5 -128z" />
<glyph unicode="h" horiz-adv-x="1310" d="M35 0v233h141v996h-141v233h391v-532q53 92 137 140t191 48q96 0 175 -42t134 -118q61 -84 75.5 -166.5t14.5 -181.5v-377h141v-233h-532v233h141v310q0 59 -2 117.5t-35 111.5q-35 53 -87 76.5t-111 23.5q-55 0 -104.5 -22.5t-84.5 -65.5q-41 -51 -47 -104t-6 -115v-332 h141v-233h-532z" />
<glyph unicode="i" horiz-adv-x="614" d="M39 0v233h143v627h-141v234h391v-861h141v-233h-534zM182 1198v264h250v-264h-250z" />
<glyph unicode="j" horiz-adv-x="573" d="M25 -180q70 4 106.5 31.5t52 68.5t16.5 93.5t1 105.5v741h-142v234h392v-1078q0 -217 -106.5 -316t-319.5 -112v232zM201 1198v264h250v-264h-250z" />
<glyph unicode="k" horiz-adv-x="1228" d="M35 0v233h143v996h-143v233h393v-858l281 281h-113v209h539v-234h-134l-301 -291l320 -336h172v-233h-596v233h92l-260 287v-287h98v-233h-491z" />
<glyph unicode="l" horiz-adv-x="614" d="M35 0v233h151v996h-141v233h391v-1229h142v-233h-543z" />
<glyph unicode="m" horiz-adv-x="2007" d="M41 860v234h369v-164q53 86 132 138t183 52q115 0 204 -62.5t136 -166.5q45 104 144.5 166.5t213.5 62.5q90 0 173 -35.5t143 -103.5q33 -37 50 -77t25.5 -81t9.5 -85t1 -91v-414h141v-233h-532v233h141v353q0 53 -4 102t-29 96q-31 45 -78 67.5t-100 22.5 q-51 0 -101.5 -20t-82.5 -61q-39 -49 -45.5 -98.5t-6.5 -108.5v-353h142v-233h-533v233h142v336q0 49 -4.5 105.5t-28.5 99.5q-27 49 -76 74.5t-104 25.5q-109 0 -174 -79q-41 -51 -50.5 -105.5t-9.5 -118.5v-338h141v-233h-532v233h141v627h-141z" />
<glyph unicode="n" horiz-adv-x="1310" d="M35 860v234h391v-156q49 92 135 136t189 44q90 0 173 -34.5t142 -100.5q33 -37 52.5 -75t27.5 -76.5t10 -80.5t2 -89v-429h141v-233h-532v233h141v355q0 51 -5 101t-38 95q-35 45 -86 66.5t-106 21.5q-57 0 -110.5 -22.5t-88.5 -69.5t-41 -110.5t-6 -118.5v-318h141v-233 h-532v233h141v627h-141z" />
<glyph unicode="o" d="M25 551q0 119 46 224.5t123.5 183t183 122.5t224.5 45t222.5 -46t180 -123.5t121.5 -182t45 -221.5q0 -121 -45 -226.5t-122.5 -184.5t-182 -125t-225.5 -46t-224.5 46t-181 125t-121.5 184.5t-44 224.5zM270 553q0 -68 24.5 -129.5t69 -107.5t103.5 -72.5t129 -26.5 q68 0 128 25.5t105.5 70.5t71 105.5t25.5 128t-24.5 128t-69 106.5t-103.5 73t-126.5 27t-128 -26t-105.5 -70t-72 -104t-27 -128z" />
<glyph unicode="p" horiz-adv-x="1351" d="M35 -166h139v1026h-139v234h391v-172q59 94 153.5 139t204.5 45q117 0 218.5 -44t176 -121t118.5 -179.5t44 -218.5q0 -113 -43 -214.5t-116.5 -178t-173 -121.5t-211.5 -45q-109 0 -207 42t-164 128v-320h141v-233h-532v233zM424 545q0 -68 25.5 -128.5t70.5 -105.5 t105.5 -70.5t128 -25.5t128 25.5t104.5 70.5t70.5 104.5t26.5 127t-24.5 128t-68.5 106.5t-103.5 73t-126.5 27q-70 0 -130.5 -26t-106.5 -70t-72.5 -105t-26.5 -131z" />
<glyph unicode="q" horiz-adv-x="1351" d="M25 543q0 117 44 219t119.5 179t177 121t218.5 44q111 0 204 -45t152 -139v172h391v-234h-139v-1026h139v-233h-532v233h141v320q-66 -86 -164 -128t-207 -42q-115 0 -214 45t-172.5 121.5t-115.5 178t-42 214.5zM285 542.5q0 -67.5 26.5 -127t70.5 -104.5t103.5 -70.5 t126.5 -25.5q70 0 129.5 25.5t104.5 70.5t70.5 105.5t25.5 128.5q0 70 -26.5 131t-71.5 105t-106.5 70t-131.5 26q-68 0 -127 -27t-102 -73t-67.5 -106.5t-24.5 -128z" />
<glyph unicode="r" horiz-adv-x="778" d="M35 0v233h141v627h-141v234h373v-187q47 98 134 146.5t193 52.5v-256q-59 -4 -113.5 -21.5t-101.5 -58.5q-61 -53 -77.5 -117.5t-16.5 -142.5v-277h141v-233h-532z" />
<glyph unicode="s" horiz-adv-x="942" d="M47 786q0 78 31 139.5t82 103.5t117.5 64.5t140.5 22.5t137 -19.5t111 -78.5v76h184v-297h-242q-4 59 -43 94t-98 35q-51 0 -95 -29t-44 -86q0 -39 17 -63.5t43 -40t57.5 -24.5t62.5 -15q74 -16 146.5 -39t131 -62t94 -99t35.5 -153q0 -84 -32.5 -147.5t-86 -107.5 t-125 -66.5t-147.5 -22.5q-84 0 -156.5 28t-125.5 91v-90h-191v317h256q6 -74 52.5 -118.5t123.5 -44.5q57 0 103.5 36.5t46.5 98.5q0 41 -17.5 66.5t-44 41t-60.5 24.5l-65 17q-72 18 -143.5 41t-127.5 62t-92 97t-36 148z" />
<glyph unicode="t" horiz-adv-x="696" d="M25 860v234h172v368h249v-368h187v-234h-187v-627h199v-233h-448v860h-172z" />
<glyph unicode="u" horiz-adv-x="1310" d="M27 860v234h391v-592q0 -53 6 -106.5t37 -98.5q31 -47 80 -70.5t104 -23.5q53 0 102.5 24.5t81.5 65.5q35 49 41.5 103.5t6.5 111.5v352h-142v234h391v-861h142v-233h-371v135q-53 -80 -143 -122t-187 -42q-88 0 -166.5 36t-136.5 104q-59 72 -77.5 149.5t-18.5 167.5 v432h-141z" />
<glyph unicode="v" horiz-adv-x="1228" d="M14 860v234h510v-234h-110l200 -553h2l215 553h-116v234h504v-234h-129l-345 -860h-262l-336 860h-133z" />
<glyph unicode="w" horiz-adv-x="1802" d="M14 860v234h506v-234h-121l158 -514h2l229 707h205l213 -707h2l168 514h-125v234h516v-234h-145l-299 -860h-242l-198 643l-236 -643h-233l-262 860h-138z" />
<glyph unicode="x" horiz-adv-x="1269" d="M35 0v233h129l289 320l-283 307h-123v234h504v-193h-92l168 -190l166 190h-93v193h498v-234h-123l-278 -307l293 -320h127v-233h-517v205h86l-159 194l-162 -194h86v-205h-516z" />
<glyph unicode="y" horiz-adv-x="1228" d="M14 860v234h516v-234h-106l194 -534l207 534h-106v234h510v-234h-137l-424 -1026h143v-233h-532v233h137l73 180l-331 846h-144z" />
<glyph unicode="z" horiz-adv-x="942" d="M25 0v201l555 659h-312v-129h-219v363h840v-226l-527 -635h336v121h220v-354h-893z" />
<glyph unicode="{" horiz-adv-x="655" d="M74 604q55 10 104 45q45 35 51.5 79t6.5 95v336q0 59 8 124t53 110q29 29 65.5 43t76.5 20t82 6h79q-92 -29 -126 -84t-34 -147v-354q0 -53 -6 -97.5t-24.5 -79t-54.5 -59.5t-93 -37q111 -27 144.5 -90t33.5 -168v-379q0 -96 32 -149.5t128 -81.5q-78 0 -145.5 3 t-135.5 48q-59 39 -71 96.5t-12 120.5v379q0 47 -5.5 80t-37.5 72q-45 51 -119 69z" />
<glyph unicode="|" horiz-adv-x="1351" d="M582 -512v2048h188v-2048h-188z" />
<glyph unicode="}" horiz-adv-x="655" d="M76 -264q94 29 125.5 82t31.5 149v379q0 104 34 168t145 90q-57 12 -92 37t-54.5 59.5t-26 78.5t-6.5 98v354q0 92 -32.5 147.5t-124.5 81.5q37 0 78 1h11q35 0 69 -5q40 -6 77 -20.5t66 -42.5q45 -45 53 -109.5t8 -124.5v-336q0 -51 6.5 -95t51.5 -79q49 -35 104 -45 q-74 -18 -119 -69q-33 -39 -38 -72t-5 -80v-379q0 -63 -12 -120.5t-72 -96.5q-68 -45 -134 -48t-144 -3z" />
<glyph unicode="~" horiz-adv-x="1351" d="M82 643q31 47 64.5 93t75.5 82t92.5 58.5t113.5 22.5q66 0 133.5 -21.5t131.5 -47.5l122 -47q57 -22 103 -21q33 0 60.5 15.5t50 39t40.5 49.5l35 52l147 -95l-65 -89q-33 -44 -72 -77.5t-87 -55t-109 -21.5q-59 0 -109.5 15t-103.5 36l-99 39l-87 31q-46 17 -87 18 q-39 0 -68.5 -16.5t-53 -41t-43.5 -55.5l-38 -59z" />
<glyph unicode="&#xa1;" horiz-adv-x="409" d="M76 -371v1024h258v-1024h-258zM76 805v289h258v-289h-258z" />
<glyph unicode="&#xa2;" d="M121 727q0 84 28.5 163t80 143.5t121 109.5t153.5 61v203h205v-199q49 -12 93 -36.5t79 -63.5v80h157v-332h-237q-27 53 -80 80t-111 27q-49 0 -91 -17.5t-72.5 -49.5t-49 -74t-18.5 -91t18.5 -91t51 -72.5t75.5 -48t92 -17.5q53 0 97.5 24.5t79.5 65.5h274 q-39 -133 -134 -216t-224 -118v-199h-205v207q-82 14 -152.5 57.5t-122 104.5t-80 138t-28.5 161z" />
<glyph unicode="&#xa3;" d="M27 614v205h137q-33 51 -47.5 101.5t-14.5 113.5q0 98 39 182t103.5 145.5t147.5 96.5t169 35q78 0 133.5 -28.5t108.5 -86.5v84h229v-405h-229q-2 47 -20.5 85t-47 63.5t-66.5 40t-79 14.5q-47 0 -89 -18.5t-73 -51.5t-48.5 -78t-17.5 -96q0 -59 19.5 -106.5t56.5 -90.5 h375v-205h-252q37 -47 65.5 -96t28.5 -115q0 -121 -92 -188h127q47 0 94 6t84 37q35 29 53.5 74t18.5 92q0 23 -3 39t-9 37h215q20 -53 20 -109q0 -92 -36.5 -168t-102.5 -129q-70 -59 -151.5 -76.5t-167.5 -17.5h-590v215h151q59 10 95 53t36 109q0 76 -35.5 130t-80.5 107 h-254z" />
<glyph unicode="&#xa4;" d="M76 319l112 111q-41 55 -62.5 129t-21.5 143q0 68 21.5 143t62.5 130l-110 108l141 142l107 -109q61 43 131.5 63.5t144.5 20.5q78 0 144.5 -20.5t132.5 -61.5l106 107l141 -142l-108 -106q43 -61 62.5 -132t19.5 -145q0 -82 -20.5 -142t-61.5 -130l108 -109l-141 -137 l-106 107q-61 -41 -131 -63.5t-142 -22.5q-154 0 -278 86l-109 -107zM330 702.5q0 -55.5 20.5 -105.5t57 -88t86 -59.5t106.5 -21.5q55 0 105.5 20.5t88 57.5t59 86t21.5 106.5t-21.5 107.5t-58 88t-86 59.5t-106.5 21.5t-106.5 -21.5t-86 -58.5t-58 -87t-21.5 -105.5z" />
<glyph unicode="&#xa5;" d="M0 1231v231h498v-231h-117l217 -488l215 488h-117v231h492v-231h-129l-170 -371h237v-117h-295l-43 -88h338v-116h-395l-12 -31v-275h141v-233h-524v233h139v275l-16 31h-400v116h342l-39 88h-303v117h246l-174 371h-131z" />
<glyph unicode="&#xa6;" horiz-adv-x="1351" d="M582 -358v716h188v-716h-188zM582 666v716h188v-716h-188z" />
<glyph unicode="&#xa7;" horiz-adv-x="942" d="M76 84v31h219q-1 -12 -1 -23q0 -69 44 -109q51 -46 135 -46q72 0 127 38.5t55 116.5q0 45 -19.5 75t-49 48t-66.5 28.5t-74 18.5q-72 16 -134 43t-110 69t-76 101.5t-28 140.5q0 102 57.5 179t153.5 110q-86 33 -143 90.5t-57 155.5q0 72 29.5 129t78.5 98t112.5 62.5 t131.5 21.5q72 0 138.5 -20.5t118.5 -61.5t82.5 -101t30.5 -138h-208q4 31 -8.5 54.5t-33 39.5t-48 25.5t-54.5 9.5q-61 0 -107 -37t-46 -103q0 -43 21.5 -71.5t54 -47t70.5 -29.5l71 -21q55 -16 104 -35t92 -60q53 -47 82 -110.5t29 -134.5q0 -96 -50 -169t-132 -116 q92 -33 145 -98.5t53 -167.5q0 -78 -32.5 -140.5t-87 -106.5t-123 -67.5t-140.5 -23.5q-76 0 -149.5 22.5t-132.5 71.5q-57 47 -91 115.5t-34 142.5zM305 612q0 -70 51.5 -110.5t116.5 -40.5q63 0 112.5 43t49.5 108q0 68 -49 111t-114.5 43t-116 -43t-50.5 -111z" />
<glyph unicode="&#xa8;" horiz-adv-x="942" d="M156 1198v264h250v-264h-250zM537 1198v264h249v-264h-249z" />
<glyph unicode="&#xa9;" horiz-adv-x="1679" d="M78 737.5q0 157.5 59.5 297t162.5 242.5t242.5 163.5t299.5 60.5q156 0 295 -59.5t242.5 -162.5t164 -241.5t60.5 -294.5q0 -162 -59.5 -303t-164 -245.5t-245 -164t-301.5 -59.5q-158 0 -295.5 60.5t-239.5 165t-161.5 244t-59.5 297zM180 739q0 -137 52.5 -258 t142.5 -210t210 -141t257 -52q135 0 255 51t209 140t141 208t52 254q0 139 -51 261t-141 211t-211 140.5t-258 51.5q-135 0 -255 -52.5t-209 -141.5t-141.5 -208t-52.5 -254zM408 729q0 102 33.5 188.5t95 148.5t145.5 97t186 35q59 0 123 -15.5t117 -46t93 -77.5t54 -111 l-139 -33q-16 98 -84.5 147.5t-169.5 49.5q-80 0 -139 -31.5t-99 -84t-59.5 -120t-19.5 -139.5q0 -74 19.5 -139.5t58.5 -114.5t97 -78.5t138 -29.5q104 0 173 54t102 153l122 -39q-23 -66 -64.5 -115t-98 -81t-121 -47t-129.5 -15q-98 0 -179 32.5t-137.5 92t-87 141.5 t-30.5 178z" />
<glyph unicode="&#xaa;" horiz-adv-x="860" d="M27 1151q0 70 25.5 133.5t71.5 111.5t106.5 76.5t131.5 28.5q63 0 113.5 -21.5t89.5 -70.5v74h246v-152h-84v-354h84v-152h-246v72q-37 -47 -90 -68.5t-110 -21.5q-72 0 -133.5 27.5t-106.5 74.5t-71.5 109.5t-26.5 132.5zM193 1151q0 -76 54 -130t130 -54q80 0 134 55 t54 135q0 78 -54 131t-130 53q-41 0 -75 -15t-59.5 -40.5t-39.5 -60.5t-14 -74z" />
<glyph unicode="&#xab;" horiz-adv-x="737" d="M74 451v194l252 291l12 -236l-131 -161l131 -160l-12 -221zM403 451v186l250 295l13 -244l-127 -151l127 -152l-13 -217z" />
<glyph unicode="&#xac;" horiz-adv-x="1351" d="M80 797v190h1192v-631h-191v441h-1001z" />
<glyph unicode="&#xad;" horiz-adv-x="655" d="M66 414v248h524v-248h-524z" />
<glyph unicode="&#xae;" horiz-adv-x="1679" d="M76 739q0 160 60.5 298.5t165 241.5t243.5 162.5t296.5 59.5t297 -60.5t243 -165t163 -243.5t59.5 -297q0 -160 -60.5 -299t-165 -242.5t-245 -163t-298 -59.5t-297 61.5t-241.5 166t-161.5 243.5t-59.5 297zM182 739q0 -139 51.5 -260t141.5 -210t211 -140t260 -51 q135 0 255 53t208 143.5t139 210t51 254.5q0 137 -52 257t-142.5 209t-211 140.5t-257.5 51.5q-135 0 -254 -52.5t-208 -141.5t-140.5 -209t-51.5 -255zM526 291v909h416q53 0 109.5 -6t107.5 -35q57 -33 82 -88t25 -119q0 -129 -77 -187t-200 -63l260 -411h-149l-246 411 h-199v-411h-129zM655 801h238q43 0 86 4t79 20.5t57.5 48t21.5 87.5q0 49 -21.5 78.5t-54.5 45t-73 19.5t-79 4h-254v-307z" />
<glyph unicode="&#xaf;" horiz-adv-x="1064" d="M145 1305v200h787v-200h-787z" />
<glyph unicode="&#xb0;" horiz-adv-x="819" d="M102 1193.5q0 63.5 25 119t65.5 97.5t97 66.5t120 24.5t119 -24.5t97.5 -66.5t66.5 -97.5t24.5 -119t-24.5 -119.5t-66.5 -97t-97.5 -65.5t-119 -24.5t-120 24.5t-97 65.5t-65.5 97t-25 119.5zM246 1194q0 -70 47 -115t117 -49q70 0 116.5 47t46.5 117t-47 117t-116.5 47 t-116.5 -47t-47 -117z" />
<glyph unicode="&#xb1;" horiz-adv-x="1351" d="M156 209v188h1040v-188h-1040zM156 827v189h426v237h188v-237h426v-189h-426v-241h-188v241h-426z" />
<glyph unicode="&#xb2;" horiz-adv-x="712" d="M39 1192q0 66 23.5 122t66.5 98t103.5 65.5t132.5 23.5q63 0 120.5 -22.5t98.5 -61.5t65.5 -91t24.5 -112q0 -49 -15.5 -88t-40 -71.5t-57.5 -62.5l-69 -60l-224 -191h244v93h156v-234h-625v141l342 306l76 73q39 39 39 92q0 55 -43 91t-103 36q-66 0 -106 -44 q-37 -40 -37 -92v-11h-172z" />
<glyph unicode="&#xb3;" horiz-adv-x="712" d="M16 854h179q10 -53 51 -89t100 -36q63 0 108.5 41t45.5 100q0 68 -49.5 107t-118.5 39h-45v127h37q59 0 104 25.5t45 86.5q0 49 -33.5 79t-87.5 30q-47 0 -79.5 -27.5t-34.5 -72.5h-164q0 53 23.5 97t63.5 74.5t90 48t105 17.5q53 0 103.5 -16.5t88.5 -46t61.5 -71.5 t23.5 -95t-29 -104.5t-82 -75.5q76 -27 120 -90.5t44 -137.5q0 -61 -27.5 -112.5t-73.5 -88t-105.5 -58t-123.5 -21.5q-66 0 -125 18.5t-106 52t-77 83.5t-32 116z" />
<glyph unicode="&#xb4;" horiz-adv-x="942" d="M145 1407l543 307l109 -219l-566 -266z" />
<glyph unicode="&#xb5;" horiz-adv-x="1310" d="M35 860v234h391v-592q0 -59 9 -113.5t35 -95.5t70 -65.5t113 -24.5q10 0 47 6t78 34.5t74 85t33 158.5v373h-142v234h392v-861h141v-233h-371v135q-53 -80 -143 -122t-187 -42q-84 0 -149 29v-399h-250v1259h-141z" />
<glyph unicode="&#xb6;" horiz-adv-x="1105" d="M33 1096q0 80 32.5 151.5t92.5 124.5q66 59 137.5 74.5t157.5 15.5h655v-233h-141v-1493h-185v1493h-200v-1493h-185v995q-76 2 -142.5 31t-115.5 77t-77.5 113.5t-28.5 143.5z" />
<glyph unicode="&#xb7;" horiz-adv-x="614" d="M178 590v289h258v-289h-258z" />
<glyph unicode="&#xb8;" horiz-adv-x="737" d="M141 -362h152q8 -27 26.5 -44.5t47.5 -17.5q35 0 55 20.5t20 55.5q0 33 -20.5 56.5t-54.5 23.5q-41 0 -70 -33l-123 51l98 250h160l-57 -141l26 2q43 0 78 -16.5t61.5 -45t41 -65.5t14.5 -78q0 -100 -65.5 -164.5t-165.5 -64.5q-92 0 -155 60.5t-69 150.5z" />
<glyph unicode="&#xb9;" horiz-adv-x="712" d="M137 1323v139h316v-737h112v-139h-399v139h110v598h-139z" />
<glyph unicode="&#xba;" horiz-adv-x="737" d="M33 1161.5q0 71.5 26.5 133t73.5 107.5t109.5 72.5t134.5 26.5q70 0 132 -26.5t108.5 -72.5t73 -106.5t26.5 -130.5q0 -72 -26.5 -135t-73 -110.5t-110 -75t-135 -27.5t-133 27.5t-107.5 74t-72.5 109t-26.5 134zM195 1161q0 -76 51 -130t127 -54t129 53t53 129 q0 37 -14.5 70t-38 58.5t-56 39.5t-69.5 14t-71 -14t-58.5 -38.5t-38.5 -57.5t-14 -70z" />
<glyph unicode="&#xbb;" horiz-adv-x="737" d="M74 385l125 152l-125 151l12 244l248 -295v-186l-248 -283zM401 379l129 160l-129 161l11 236l254 -291v-194l-254 -293z" />
<glyph unicode="&#xbc;" horiz-adv-x="1781" d="M115 1323v139h315v-737h113v-139h-400v139h111v598h-139zM391 0l660 1462h200l-655 -1462h-205zM944 233v127l410 517h202v-517h144v-127h-144v-94h111v-139h-395v139h110v94h-438zM1137 360h245v318z" />
<glyph unicode="&#xbd;" horiz-adv-x="1781" d="M137 1323v139h316v-737h112v-139h-399v139h110v598h-139zM412 0l659 1462h201l-656 -1462h-204zM1067 592q0 66 23.5 122t66.5 98t103.5 65.5t132.5 23.5q63 0 120.5 -22.5t98.5 -61.5t65.5 -91t24.5 -112q0 -49 -15.5 -88t-40 -71.5t-57.5 -62.5l-69 -60l-224 -191h244 v92h156v-233h-625v141l342 305l76 74q39 39 39 92q0 55 -43 91t-103 36q-66 0 -106 -44q-37 -40 -37 -92v-11h-172z" />
<glyph unicode="&#xbe;" horiz-adv-x="1781" d="M20 854h179q10 -53 51 -89t100 -36q63 0 108.5 41t45.5 100q0 68 -49 107t-119 39h-45v127h37q59 0 104 25.5t45 86.5q0 49 -33.5 79t-87.5 30q-47 0 -79.5 -27.5t-34.5 -72.5h-164q0 53 23.5 97t63.5 74.5t90 48t105 17.5q53 0 103.5 -16.5t88.5 -46t61.5 -71.5 t23.5 -95t-28.5 -104.5t-82.5 -75.5q76 -27 120 -90.5t44 -137.5q0 -61 -27.5 -112.5t-73.5 -88t-105.5 -58t-123.5 -21.5q-66 0 -125 18.5t-106 52t-77 83.5t-32 116zM463 0l659 1462h201l-655 -1462h-205zM985 233v127l410 517h202v-517h144v-127h-144v-94h111v-139h-395 v139h110v94h-438zM1178 360h245v318z" />
<glyph unicode="&#xbf;" horiz-adv-x="1105" d="M74 72q0 84 23.5 143t58 103t77.5 80t83 75t71 88t41 121h258q0 -65 -15.5 -117.5t-43 -97.5t-64.5 -86t-82 -82q-53 -47 -95 -96t-42 -127q0 -43 16.5 -82t45 -68.5t67.5 -47t84 -17.5q102 0 162.5 67.5t62.5 165.5h262q0 -5 1 -10q0 -98 -36 -185q-38 -91 -103.5 -159 t-156 -107t-194.5 -39q-98 0 -185 38t-152.5 103.5t-104.5 152t-39 184.5zM428 805v289h258v-289h-258z" />
<glyph unicode="&#xc0;" horiz-adv-x="1597" d="M14 0v233h156l426 996h-162v233h490l512 -1229h155v-233h-616v205h162l-86 219h-514l-84 -219h157v-205h-596zM432 1853l100 222l549 -295l-84 -183zM608 639h373l-184 502h-2z" />
<glyph unicode="&#xc1;" horiz-adv-x="1597" d="M14 0v233h156l426 996h-162v233h490l512 -1229h155v-233h-616v205h162l-86 219h-514l-84 -219h157v-205h-596zM432 1776l543 307l108 -219l-565 -267zM608 639h373l-184 502h-2z" />
<glyph unicode="&#xc2;" horiz-adv-x="1597" d="M14 0v233h156l426 996h-162v233h490l512 -1229h155v-233h-616v205h162l-86 219h-514l-84 -219h157v-205h-596zM330 1661l354 344h172l354 -344h-282l-158 154l-158 -154h-282zM608 639h373l-184 502h-2z" />
<glyph unicode="&#xc3;" horiz-adv-x="1597" d="M14 0v233h156l426 996h-162v233h490l512 -1229h155v-233h-616v205h162l-86 219h-514l-84 -219h157v-205h-596zM373 1851q41 33 97 54.5t110 21.5q41 0 78.5 -9t72.5 -20q35 -12 71 -21t77 -9q45 0 83.5 12t73.5 43l121 -166q-49 -43 -106.5 -67.5t-122.5 -24.5 q-43 0 -81 9t-73 21.5t-67.5 21.5t-65.5 9q-41 0 -73.5 -15t-63.5 -44zM608 639h373l-184 502h-2z" />
<glyph unicode="&#xc4;" horiz-adv-x="1597" d="M14 0v233h156l426 996h-162v233h490l512 -1229h155v-233h-616v205h162l-86 219h-514l-84 -219h157v-205h-596zM442 1567v264h250v-264h-250zM608 639h373l-184 502h-2zM823 1567v264h250v-264h-250z" />
<glyph unicode="&#xc5;" horiz-adv-x="1597" d="M14 0v233h156l426 996h-162v233h490l512 -1229h155v-233h-616v205h162l-86 219h-514l-84 -219h157v-205h-596zM537 1837q0 49 19 93t52 76t77 50.5t93 18.5t93 -19.5t76 -52.5t50.5 -77t18.5 -93t-18.5 -93t-51.5 -76t-76 -51.5t-92 -19.5q-51 0 -95 19.5t-77 52.5 t-51 77t-18 95zM608 639h373l-184 502h-2zM680 1831q0 -41 28.5 -67.5t67.5 -26.5q41 0 68.5 29.5t27.5 70.5q0 39 -28.5 66.5t-67.5 27.5q-41 0 -68.5 -29.5t-27.5 -70.5z" />
<glyph unicode="&#xc6;" horiz-adv-x="2007" d="M14 0v233h162l680 996h-154v233h1258v-440h-279v192h-370v-368h428v-211h-428v-389h370v196h279v-442h-1086v197h158v233h-432l-154 -233h160v-197h-592zM725 635h307v475h-2z" />
<glyph unicode="&#xc7;" horiz-adv-x="1556" d="M41 743.5q0 153.5 58.5 290.5t159.5 241.5t237.5 165t291.5 60.5q129 0 246 -44t207 -136v147h229v-467h-266q-31 51 -76 93.5t-98 71t-111.5 44t-117.5 15.5q-104 0 -191.5 -37t-152 -101.5t-100 -153.5t-35.5 -192q0 -98 36.5 -185t101 -153.5t151.5 -104.5t186 -38 q127 0 235.5 57.5t175.5 163.5h301q-35 -106 -99 -195t-152.5 -156t-191.5 -106.5t-214 -48.5l-47 -116l26 2q43 0 78 -16.5t61.5 -45t41 -65.5t14.5 -78q0 -100 -65.5 -164.5t-165.5 -64.5q-92 0 -154.5 60t-69.5 151h152q8 -27 26.5 -44.5t47.5 -17.5q35 0 55 20.5 t20 55.5q0 33 -20.5 56.5t-54.5 23.5q-41 0 -70 -33l-123 51l90 230q-123 18 -234.5 74.5t-197.5 142.5q-109 111 -165 252t-56 294.5z" />
<glyph unicode="&#xc8;" d="M45 0v233h160v996h-160v233h1083v-440h-278v190h-367v-364h426v-217h-426v-387h367v198h278v-442h-1083zM268 1853l101 222l549 -295l-84 -183z" />
<glyph unicode="&#xc9;" d="M45 0v233h160v996h-160v233h1083v-440h-278v190h-367v-364h426v-217h-426v-387h367v198h278v-442h-1083zM268 1776l543 307l109 -219l-566 -267z" />
<glyph unicode="&#xca;" d="M45 0v233h160v996h-160v233h1083v-440h-278v190h-367v-364h426v-217h-426v-387h367v198h278v-442h-1083zM145 1661l355 344h172l354 -344h-283l-157 154l-158 -154h-283z" />
<glyph unicode="&#xcb;" d="M45 0v233h160v996h-160v233h1083v-440h-278v190h-367v-364h426v-217h-426v-387h367v198h278v-442h-1083zM279 1567v264h249v-264h-249zM659 1567v264h250v-264h-250z" />
<glyph unicode="&#xcc;" horiz-adv-x="696" d="M23 1853l100 222l549 -295l-84 -183zM45 0v233h160v996h-160v233h596v-233h-158v-996h158v-233h-596z" />
<glyph unicode="&#xcd;" horiz-adv-x="696" d="M23 1776l542 307l109 -219l-565 -267zM45 0v233h160v996h-160v233h596v-233h-158v-996h158v-233h-596z" />
<glyph unicode="&#xce;" horiz-adv-x="696" d="M-80 1661l354 344h172l355 -344h-283l-158 154l-157 -154h-283zM45 0v233h160v996h-160v233h596v-233h-158v-996h158v-233h-596z" />
<glyph unicode="&#xcf;" horiz-adv-x="696" d="M33 1567v264h250v-264h-250zM45 0v233h160v996h-160v233h596v-233h-158v-996h158v-233h-596zM414 1567v264h250v-264h-250z" />
<glyph unicode="&#xd0;" horiz-adv-x="1515" d="M45 0v233h160v398h-160v217h160v381h-160v233h694q154 0 277 -40t233 -152q106 -109 156.5 -249t50.5 -294q0 -141 -47 -273t-141 -237q-111 -123 -241 -170t-292 -47h-690zM483 252h219q51 0 100.5 4t94.5 18.5t85 40t77 66.5q59 70 89 163t30 183q0 98 -30 198.5 t-97 172.5q-76 76 -160 96t-184 20h-224v-366h279v-217h-279v-379z" />
<glyph unicode="&#xd1;" horiz-adv-x="1638" d="M45 0v233h158v996h-158v233h410l696 -979v746h-160v233h596v-233h-157v-1229h-261l-688 963v-730h160v-233h-596zM434 1851q41 33 97.5 54.5t109.5 21.5q41 0 79 -9t73 -20q35 -12 70.5 -21t76.5 -9q45 0 84 12t74 43l121 -166q-49 -43 -106.5 -67.5t-123.5 -24.5 q-43 0 -81 9t-72.5 21.5t-67.5 21.5t-66 9q-41 0 -73.5 -15t-63.5 -44z" />
<glyph unicode="&#xd2;" horiz-adv-x="1597" d="M41 731q0 162 60.5 302.5t166 243.5t245.5 162.5t300 59.5q156 0 294 -59.5t242.5 -162.5t165 -240.5t60.5 -293.5q0 -160 -59.5 -301t-164 -246.5t-244.5 -166t-300 -60.5q-158 0 -297 59.5t-243.5 163t-165 242.5t-60.5 297zM328 739q0 -102 36.5 -191t101 -155.5 t152 -105.5t189.5 -39t190 39t152.5 106.5t101.5 156.5t37 191q0 98 -38 185.5t-102.5 153t-151.5 103.5t-185 38q-100 0 -188 -38t-154 -102.5t-103.5 -153t-37.5 -188.5zM473 1853l100 222l549 -295l-84 -183z" />
<glyph unicode="&#xd3;" horiz-adv-x="1597" d="M41 731q0 162 60.5 302.5t166 243.5t245.5 162.5t300 59.5q156 0 294 -59.5t242.5 -162.5t165 -240.5t60.5 -293.5q0 -160 -59.5 -301t-164 -246.5t-244.5 -166t-300 -60.5q-158 0 -297 59.5t-243.5 163t-165 242.5t-60.5 297zM328 739q0 -102 36.5 -191t101 -155.5 t152 -105.5t189.5 -39t190 39t152.5 106.5t101.5 156.5t37 191q0 98 -38 185.5t-102.5 153t-151.5 103.5t-185 38q-100 0 -188 -38t-154 -102.5t-103.5 -153t-37.5 -188.5zM473 1776l543 307l108 -219l-565 -267z" />
<glyph unicode="&#xd4;" horiz-adv-x="1597" d="M41 731q0 162 60.5 302.5t166 243.5t245.5 162.5t300 59.5q156 0 294 -59.5t242.5 -162.5t165 -240.5t60.5 -293.5q0 -160 -59.5 -301t-164 -246.5t-244.5 -166t-300 -60.5q-158 0 -297 59.5t-243.5 163t-165 242.5t-60.5 297zM328 739q0 -102 36.5 -191t101 -155.5 t152 -105.5t189.5 -39t190 39t152.5 106.5t101.5 156.5t37 191q0 98 -38 185.5t-102.5 153t-151.5 103.5t-185 38q-100 0 -188 -38t-154 -102.5t-103.5 -153t-37.5 -188.5zM350 1661l355 344h172l354 -344h-283l-157 154l-158 -154h-283z" />
<glyph unicode="&#xd5;" horiz-adv-x="1597" d="M41 731q0 162 60.5 302.5t166 243.5t245.5 162.5t300 59.5q156 0 294 -59.5t242.5 -162.5t165 -240.5t60.5 -293.5q0 -160 -59.5 -301t-164 -246.5t-244.5 -166t-300 -60.5q-158 0 -297 59.5t-243.5 163t-165 242.5t-60.5 297zM328 739q0 -102 36.5 -191t101 -155.5 t152 -105.5t189.5 -39t190 39t152.5 106.5t101.5 156.5t37 191q0 98 -38 185.5t-102.5 153t-151.5 103.5t-185 38q-100 0 -188 -38t-154 -102.5t-103.5 -153t-37.5 -188.5zM414 1851q41 33 97 54.5t110 21.5q41 0 78.5 -9t72.5 -20q35 -12 71 -21t77 -9q45 0 83.5 12 t73.5 43l121 -166q-49 -43 -106.5 -67.5t-122.5 -24.5q-43 0 -81 9t-73 21.5t-67.5 21.5t-65.5 9q-41 0 -74 -15t-63 -44z" />
<glyph unicode="&#xd6;" horiz-adv-x="1597" d="M41 731q0 162 60.5 302.5t166 243.5t245.5 162.5t300 59.5q156 0 294 -59.5t242.5 -162.5t165 -240.5t60.5 -293.5q0 -160 -59.5 -301t-164 -246.5t-244.5 -166t-300 -60.5q-158 0 -297 59.5t-243.5 163t-165 242.5t-60.5 297zM328 739q0 -102 36.5 -191t101 -155.5 t152 -105.5t189.5 -39t190 39t152.5 106.5t101.5 156.5t37 191q0 98 -38 185.5t-102.5 153t-151.5 103.5t-185 38q-100 0 -188 -38t-154 -102.5t-103.5 -153t-37.5 -188.5zM483 1567v264h250v-264h-250zM864 1567v264h250v-264h-250z" />
<glyph unicode="&#xd7;" horiz-adv-x="1351" d="M186 377l357 356l-357 357l133 133l357 -357l356 357l133 -133l-356 -357l356 -356l-133 -133l-356 356l-357 -356z" />
<glyph unicode="&#xd8;" horiz-adv-x="1597" d="M43 733q0 160 60.5 300t164 244.5t243.5 164t300 59.5q55 0 100 -6t88 -18.5t86 -31t91 -42.5l28 -17l146 179l155 -123l-145 -178q207 -225 207 -537q0 -160 -61.5 -298t-167 -239.5t-247 -160t-298.5 -58.5q-82 0 -166 17.5t-156 54.5l-72 37l-147 -184l-154 122 l152 187q-106 115 -156.5 243.5t-50.5 284.5zM326 731q0 -92 28.5 -157.5t81.5 -137.5l590 725q-61 29 -109.5 46.5t-119.5 17.5q-98 0 -184.5 -40t-150 -108.5t-100 -158t-36.5 -187.5zM584 307q59 -27 106 -43t115 -16q102 0 189 38t151.5 104.5t101.5 154.5t37 188 q0 98 -26.5 164t-79.5 139z" />
<glyph unicode="&#xd9;" horiz-adv-x="1433" d="M47 1229v233h569v-233h-133v-688q0 -53 6.5 -105.5t36.5 -99.5q35 -51 88.5 -77t112.5 -26q55 0 104.5 21.5t83.5 67.5q37 47 45.5 104t8.5 115v688h-133v233h569v-233h-158v-725q0 -115 -25.5 -207t-107.5 -178q-78 -82 -177 -115t-210 -33q-106 0 -202.5 29t-174.5 106 q-45 43 -72.5 90.5t-44 97.5t-22.5 104.5t-6 113.5v717h-158zM391 1853l101 222l548 -295l-84 -183z" />
<glyph unicode="&#xda;" horiz-adv-x="1433" d="M47 1229v233h569v-233h-133v-688q0 -53 6.5 -105.5t36.5 -99.5q35 -51 88.5 -77t112.5 -26q55 0 104.5 21.5t83.5 67.5q37 47 45.5 104t8.5 115v688h-133v233h569v-233h-158v-725q0 -115 -25.5 -207t-107.5 -178q-78 -82 -177 -115t-210 -33q-106 0 -202.5 29t-174.5 106 q-45 43 -72.5 90.5t-44 97.5t-22.5 104.5t-6 113.5v717h-158zM391 1776l543 307l108 -219l-565 -267z" />
<glyph unicode="&#xdb;" horiz-adv-x="1433" d="M47 1229v233h569v-233h-133v-688q0 -53 6.5 -105.5t36.5 -99.5q35 -51 88.5 -77t112.5 -26q55 0 104.5 21.5t83.5 67.5q37 47 45.5 104t8.5 115v688h-133v233h569v-233h-158v-725q0 -115 -25.5 -207t-107.5 -178q-78 -82 -177 -115t-210 -33q-106 0 -202.5 29t-174.5 106 q-45 43 -72.5 90.5t-44 97.5t-22.5 104.5t-6 113.5v717h-158zM289 1661l354 344h172l354 -344h-282l-158 154l-158 -154h-282z" />
<glyph unicode="&#xdc;" horiz-adv-x="1433" d="M47 1229v233h569v-233h-133v-688q0 -53 6.5 -105.5t36.5 -99.5q35 -51 88.5 -77t112.5 -26q55 0 104.5 21.5t83.5 67.5q37 47 45.5 104t8.5 115v688h-133v233h569v-233h-158v-725q0 -115 -25.5 -207t-107.5 -178q-78 -82 -177 -115t-210 -33q-106 0 -202.5 29t-174.5 106 q-45 43 -72.5 90.5t-44 97.5t-22.5 104.5t-6 113.5v717h-158zM422 1567v264h250v-264h-250zM803 1567v264h250v-264h-250z" />
<glyph unicode="&#xdd;" horiz-adv-x="1392" d="M14 1229v233h566v-233h-136l246 -484l244 484h-139v233h563v-233h-146l-385 -719v-277h160v-233h-596v233h158v277l-387 719h-148zM371 1776l542 307l109 -219l-565 -267z" />
<glyph unicode="&#xde;" horiz-adv-x="1228" d="M47 0v233h158v996h-158v233h596v-233h-160v-80h146q121 0 224 -15.5t180 -60.5t121 -127t44 -213q0 -113 -39 -190.5t-108.5 -126.5t-162.5 -70.5t-204 -21.5h-201v-91h160v-233h-596zM483 547h166q59 0 108.5 7t85.5 26.5t55.5 56.5t19.5 96q0 61 -23 98t-60.5 58.5 t-89 29t-108.5 7.5h-154v-379z" />
<glyph unicode="&#xdf;" horiz-adv-x="1228" d="M25 0v233h143v732q0 51 4 99t16.5 93t35 88t57.5 84q72 84 165 128t172 44q90 0 169 -31.5t138.5 -87t94.5 -133.5t35 -170t-43 -171t-131 -113q74 -12 132 -47t97 -87.5t59.5 -118t20.5 -139.5q0 -98 -33 -179t-90 -137t-135 -88t-166 -32q-53 0 -106.5 10.5 t-102.5 28.5v234q76 -43 160 -43q45 0 86 16t71.5 45t48 69t17.5 87q0 66 -28.5 110.5t-72.5 72.5t-100.5 40t-111.5 12h-56v221h33q86 0 141.5 53.5t55.5 139.5q0 84 -52.5 136t-125.5 52q-49 0 -91.5 -26.5t-70.5 -65.5q-35 -47 -39 -98t-4 -107v-954h-393z" />
<glyph unicode="&#xe0;" horiz-adv-x="1351" d="M25 541q0 119 45 224t121.5 185t181 126t225.5 46q106 0 194.5 -47t145.5 -137v156h391v-234h-137v-627h137v-233h-391v147q-59 -92 -151.5 -134t-200.5 -42q-117 0 -219.5 45t-178 123t-119.5 181.5t-44 220.5zM283 541q0 -68 25.5 -126.5t70.5 -103.5t104.5 -70.5 t124.5 -25.5q70 0 131.5 26.5t106.5 72.5t70.5 107.5t25.5 131.5q0 68 -26.5 127t-70.5 103t-104.5 70t-128.5 26q-70 0 -130 -27t-104 -73t-69.5 -107t-25.5 -131zM350 1485l101 221l548 -295l-84 -182z" />
<glyph unicode="&#xe1;" horiz-adv-x="1351" d="M25 541q0 119 45 224t121.5 185t181 126t225.5 46q106 0 194.5 -47t145.5 -137v156h391v-234h-137v-627h137v-233h-391v147q-59 -92 -151.5 -134t-200.5 -42q-117 0 -219.5 45t-178 123t-119.5 181.5t-44 220.5zM283 541q0 -68 25.5 -126.5t70.5 -103.5t104.5 -70.5 t124.5 -25.5q70 0 131.5 26.5t106.5 72.5t70.5 107.5t25.5 131.5q0 68 -26.5 127t-70.5 103t-104.5 70t-128.5 26q-70 0 -130 -27t-104 -73t-69.5 -107t-25.5 -131zM350 1407l543 307l108 -219l-565 -266z" />
<glyph unicode="&#xe2;" horiz-adv-x="1351" d="M25 541q0 119 45 224t121.5 185t181 126t225.5 46q106 0 194.5 -47t145.5 -137v156h391v-234h-137v-627h137v-233h-391v147q-59 -92 -151.5 -134t-200.5 -42q-117 0 -219.5 45t-178 123t-119.5 181.5t-44 220.5zM227 1272l355 344h172l354 -344h-283l-157 153l-158 -153 h-283zM283 541q0 -68 25.5 -126.5t70.5 -103.5t104.5 -70.5t124.5 -25.5q70 0 131.5 26.5t106.5 72.5t70.5 107.5t25.5 131.5q0 68 -26.5 127t-70.5 103t-104.5 70t-128.5 26q-70 0 -130 -27t-104 -73t-69.5 -107t-25.5 -131z" />
<glyph unicode="&#xe3;" horiz-adv-x="1351" d="M25 541q0 119 45 224t121.5 185t181 126t225.5 46q106 0 194.5 -47t145.5 -137v156h391v-234h-137v-627h137v-233h-391v147q-59 -92 -151.5 -134t-200.5 -42q-117 0 -219.5 45t-178 123t-119.5 181.5t-44 220.5zM270 1483q41 33 97.5 54.5t109.5 21.5q41 0 79 -9.5 t73 -19.5q35 -12 70.5 -21.5t76.5 -9.5q45 0 84 12.5t74 42.5l121 -165q-49 -43 -106.5 -68t-123.5 -25q-43 0 -80.5 9.5t-72.5 21.5t-68 21.5t-65 9.5q-41 0 -74 -15.5t-64 -44.5zM283 541q0 -68 25.5 -126.5t70.5 -103.5t104.5 -70.5t124.5 -25.5q70 0 131.5 26.5 t106.5 72.5t70.5 107.5t25.5 131.5q0 68 -26.5 127t-70.5 103t-104.5 70t-128.5 26q-70 0 -130 -27t-104 -73t-69.5 -107t-25.5 -131z" />
<glyph unicode="&#xe4;" horiz-adv-x="1351" d="M25 541q0 119 45 224t121.5 185t181 126t225.5 46q106 0 194.5 -47t145.5 -137v156h391v-234h-137v-627h137v-233h-391v147q-59 -92 -151.5 -134t-200.5 -42q-117 0 -219.5 45t-178 123t-119.5 181.5t-44 220.5zM283 541q0 -68 25.5 -126.5t70.5 -103.5t104.5 -70.5 t124.5 -25.5q70 0 131.5 26.5t106.5 72.5t70.5 107.5t25.5 131.5q0 68 -26.5 127t-70.5 103t-104.5 70t-128.5 26q-70 0 -130 -27t-104 -73t-69.5 -107t-25.5 -131zM340 1198v264h250v-264h-250zM721 1198v264h250v-264h-250z" />
<glyph unicode="&#xe5;" horiz-adv-x="1351" d="M25 541q0 119 45 224t121.5 185t181 126t225.5 46q106 0 194.5 -47t145.5 -137v156h391v-234h-137v-627h137v-233h-391v147q-59 -92 -151.5 -134t-200.5 -42q-117 0 -219.5 45t-178 123t-119.5 181.5t-44 220.5zM283 541q0 -68 25.5 -126.5t70.5 -103.5t104.5 -70.5 t124.5 -25.5q70 0 131.5 26.5t106.5 72.5t70.5 107.5t25.5 131.5q0 68 -26.5 127t-70.5 103t-104.5 70t-128.5 26q-70 0 -130 -27t-104 -73t-69.5 -107t-25.5 -131zM393 1468q0 49 19.5 93.5t52.5 76t77 50t93 18.5t93 -19.5t76 -52t50 -77t18 -93.5t-18 -93t-51 -75.5 t-76 -51t-92 -19.5q-51 0 -95 19.5t-77 52t-51.5 76.5t-18.5 95zM537 1462q0 -41 28.5 -67.5t67.5 -26.5q41 0 68.5 29.5t27.5 70.5q0 39 -28.5 67t-67.5 28q-41 0 -68.5 -30t-27.5 -71z" />
<glyph unicode="&#xe6;" horiz-adv-x="2129" d="M27 559q0 113 45 215.5t121.5 181t178 124.5t216.5 46q104 0 194 -45t154 -127v140h250v-154q127 186 352 186q117 0 218.5 -46t178 -123.5t120.5 -181t44 -218.5q0 -43 -2 -68.5t-4 -25.5h-889q10 -55 41 -101.5t74 -78t95 -50t108 -18.5q80 0 137 27.5t110 85.5h289 q-35 -80 -89 -146.5t-123.5 -112.5t-150.5 -72t-169 -26q-104 0 -195.5 52.5t-144.5 140.5v-164h-250v168q-51 -92 -137 -144.5t-191 -52.5q-121 0 -227.5 46t-185 126t-123.5 186.5t-45 229.5zM276 561q0 -72 26 -134t71 -109.5t106.5 -75t132.5 -27.5q74 0 137.5 25.5 t110.5 71.5t74 109.5t27 137.5q0 70 -29 130.5t-77 105.5t-110.5 71.5t-128 26.5t-127 -26.5t-108.5 -71.5t-76 -105.5t-29 -128.5zM1202 653h641q-33 104 -120 172t-197 68q-119 0 -202 -64.5t-122 -175.5z" />
<glyph unicode="&#xe7;" d="M25 547q0 113 42 218t116.5 185t175 128t216.5 48q92 0 172 -35.5t142 -101.5v105h215v-365h-234q-45 66 -116 109q-72 41 -156 41q-70 0 -129 -27t-102 -72t-68 -105.5t-25 -127.5q0 -70 26 -130.5t71 -104.5t105.5 -69.5t127.5 -25.5q80 0 153.5 40t108.5 112h279 q-23 -80 -70 -147.5t-110.5 -119t-139 -84t-155.5 -41.5l-49 -118l26 2q43 0 78 -16.5t61.5 -45t41 -65.5t14.5 -78q0 -100 -65.5 -164.5t-166.5 -64.5q-92 0 -154.5 60t-68.5 151h152q8 -27 26.5 -44.5t46.5 -17.5q35 0 55.5 20.5t20.5 55.5q0 33 -20.5 56.5t-55.5 23.5 q-41 0 -69 -33l-123 51l90 232q-104 16 -192.5 66t-154 125t-102 170t-36.5 204z" />
<glyph unicode="&#xe8;" d="M27 543q0 121 43 227.5t119.5 185t180 124.5t226.5 46q115 0 222.5 -47t187.5 -129q82 -86 117.5 -189.5t35.5 -219.5l-8 -88h-885q12 -57 43 -105.5t75 -83.5t97.5 -54.5t112.5 -19.5q82 0 149.5 32t114.5 100h260q-33 -78 -85 -142.5t-119.5 -110.5t-146.5 -72 t-165 -26q-121 0 -225.5 44t-182 121t-122.5 181.5t-45 225.5zM248 1485l100 221l549 -295l-84 -182zM264 645h664q-33 119 -127 188.5t-217 69.5q-55 0 -107.5 -20.5t-95.5 -55t-74 -82t-43 -100.5z" />
<glyph unicode="&#xe9;" d="M27 543q0 121 43 227.5t119.5 185t180 124.5t226.5 46q115 0 222.5 -47t187.5 -129q82 -86 117.5 -189.5t35.5 -219.5l-8 -88h-885q12 -57 43 -105.5t75 -83.5t97.5 -54.5t112.5 -19.5q82 0 149.5 32t114.5 100h260q-33 -78 -85 -142.5t-119.5 -110.5t-146.5 -72 t-165 -26q-121 0 -225.5 44t-182 121t-122.5 181.5t-45 225.5zM264 645h664q-33 119 -127 188.5t-217 69.5q-55 0 -107.5 -20.5t-95.5 -55t-74 -82t-43 -100.5zM268 1407l543 307l109 -219l-566 -266z" />
<glyph unicode="&#xea;" d="M27 543q0 121 43 227.5t119.5 185t180 124.5t226.5 46q115 0 222.5 -47t187.5 -129q82 -86 117.5 -189.5t35.5 -219.5l-8 -88h-885q12 -57 43 -105.5t75 -83.5t97.5 -54.5t112.5 -19.5q82 0 149.5 32t114.5 100h260q-33 -78 -85 -142.5t-119.5 -110.5t-146.5 -72 t-165 -26q-121 0 -225.5 44t-182 121t-122.5 181.5t-45 225.5zM145 1272l355 344h172l354 -344h-283l-157 153l-158 -153h-283zM264 645h664q-33 119 -127 188.5t-217 69.5q-55 0 -107.5 -20.5t-95.5 -55t-74 -82t-43 -100.5z" />
<glyph unicode="&#xeb;" d="M27 543q0 121 43 227.5t119.5 185t180 124.5t226.5 46q115 0 222.5 -47t187.5 -129q82 -86 117.5 -189.5t35.5 -219.5l-8 -88h-885q12 -57 43 -105.5t75 -83.5t97.5 -54.5t112.5 -19.5q82 0 149.5 32t114.5 100h260q-33 -78 -85 -142.5t-119.5 -110.5t-146.5 -72 t-165 -26q-121 0 -225.5 44t-182 121t-122.5 181.5t-45 225.5zM258 1198v264h250v-264h-250zM264 645h664q-33 119 -127 188.5t-217 69.5q-55 0 -107.5 -20.5t-95.5 -55t-74 -82t-43 -100.5zM639 1198v264h250v-264h-250z" />
<glyph unicode="&#xec;" horiz-adv-x="614" d="M-18 1485l100 221l549 -295l-84 -182zM39 0v233h143v627h-141v234h391v-861h141v-233h-534z" />
<glyph unicode="&#xed;" horiz-adv-x="614" d="M-18 1407l542 307l109 -219l-565 -266zM39 0v233h143v627h-141v234h391v-861h141v-233h-534z" />
<glyph unicode="&#xee;" horiz-adv-x="614" d="M-141 1272l354 344h172l354 -344h-282l-158 153l-158 -153h-282zM39 0v233h143v627h-141v234h391v-861h141v-233h-534z" />
<glyph unicode="&#xef;" horiz-adv-x="614" d="M-8 1198v264h250v-264h-250zM39 0v233h143v627h-141v234h391v-861h141v-233h-534zM373 1198v264h250v-264h-250z" />
<glyph unicode="&#xf0;" d="M25 551q0 119 46 224.5t123.5 183t183 122.5t224.5 45q23 0 44.5 -2t43.5 -6q-27 25 -53.5 46.5t-58.5 43.5l-295 -88l-168 109l280 86q-45 23 -97 43t-110 37l293 80q37 -10 81 -30t97 -48l254 78l168 -117l-258 -76q68 -57 131.5 -129t111.5 -161t76.5 -198.5 t28.5 -240.5q0 -121 -45 -226.5t-122.5 -184.5t-182 -125t-225.5 -46t-224.5 46t-181 125t-121.5 184.5t-44 224.5zM270 553q0 -68 24.5 -129.5t69 -107.5t103.5 -72.5t129 -26.5q68 0 128 25.5t105.5 70.5t71 105.5t25.5 128t-24.5 128t-69 106.5t-103.5 73t-126.5 27 t-128 -26t-105.5 -70t-72 -104t-27 -128z" />
<glyph unicode="&#xf1;" horiz-adv-x="1310" d="M35 860v234h391v-156q49 92 135 136t189 44q90 0 173 -34.5t142 -100.5q33 -37 52.5 -75t27.5 -76.5t10 -80.5t2 -89v-429h141v-233h-532v233h141v355q0 51 -5 101t-38 95q-35 45 -86 66.5t-106 21.5q-57 0 -110.5 -22.5t-88.5 -69.5t-41 -110.5t-6 -118.5v-318h141v-233 h-532v233h141v627h-141zM270 1483q41 33 97.5 54.5t109.5 21.5q41 0 79 -9.5t73 -19.5q35 -12 70.5 -21.5t76.5 -9.5q45 0 84 12.5t74 42.5l121 -165q-49 -43 -106.5 -68t-123.5 -25q-43 0 -80.5 9.5t-72.5 21.5t-68 21.5t-65 9.5q-41 0 -74 -15.5t-64 -44.5z" />
<glyph unicode="&#xf2;" d="M25 551q0 119 46 224.5t123.5 183t183 122.5t224.5 45t222.5 -46t180 -123.5t121.5 -182t45 -221.5q0 -121 -45 -226.5t-122.5 -184.5t-182 -125t-225.5 -46t-224.5 46t-181 125t-121.5 184.5t-44 224.5zM268 1485l101 221l549 -295l-84 -182zM270 553q0 -68 24.5 -129.5 t69 -107.5t103.5 -72.5t129 -26.5q68 0 128 25.5t105.5 70.5t71 105.5t25.5 128t-24.5 128t-69 106.5t-103.5 73t-126.5 27t-128 -26t-105.5 -70t-72 -104t-27 -128z" />
<glyph unicode="&#xf3;" d="M25 551q0 119 46 224.5t123.5 183t183 122.5t224.5 45t222.5 -46t180 -123.5t121.5 -182t45 -221.5q0 -121 -45 -226.5t-122.5 -184.5t-182 -125t-225.5 -46t-224.5 46t-181 125t-121.5 184.5t-44 224.5zM268 1407l543 307l109 -219l-566 -266zM270 553 q0 -68 24.5 -129.5t69 -107.5t103.5 -72.5t129 -26.5q68 0 128 25.5t105.5 70.5t71 105.5t25.5 128t-24.5 128t-69 106.5t-103.5 73t-126.5 27t-128 -26t-105.5 -70t-72 -104t-27 -128z" />
<glyph unicode="&#xf4;" d="M25 551q0 119 46 224.5t123.5 183t183 122.5t224.5 45t222.5 -46t180 -123.5t121.5 -182t45 -221.5q0 -121 -45 -226.5t-122.5 -184.5t-182 -125t-225.5 -46t-224.5 46t-181 125t-121.5 184.5t-44 224.5zM166 1272l354 344h172l355 -344h-283l-158 153l-157 -153h-283z M270 553q0 -68 24.5 -129.5t69 -107.5t103.5 -72.5t129 -26.5q68 0 128 25.5t105.5 70.5t71 105.5t25.5 128t-24.5 128t-69 106.5t-103.5 73t-126.5 27t-128 -26t-105.5 -70t-72 -104t-27 -128z" />
<glyph unicode="&#xf5;" d="M25 551q0 119 46 224.5t123.5 183t183 122.5t224.5 45t222.5 -46t180 -123.5t121.5 -182t45 -221.5q0 -121 -45 -226.5t-122.5 -184.5t-182 -125t-225.5 -46t-224.5 46t-181 125t-121.5 184.5t-44 224.5zM209 1483q41 33 97 54.5t110 21.5q41 0 78.5 -9.5t72.5 -19.5 q35 -12 71 -21.5t77 -9.5q45 0 84 12.5t73 42.5l121 -165q-49 -43 -106.5 -68t-122.5 -25q-43 0 -81 9.5t-73 21.5t-67.5 21.5t-65.5 9.5q-41 0 -73.5 -15.5t-63.5 -44.5zM270 553q0 -68 24.5 -129.5t69 -107.5t103.5 -72.5t129 -26.5q68 0 128 25.5t105.5 70.5t71 105.5 t25.5 128t-24.5 128t-69 106.5t-103.5 73t-126.5 27t-128 -26t-105.5 -70t-72 -104t-27 -128z" />
<glyph unicode="&#xf6;" d="M25 551q0 119 46 224.5t123.5 183t183 122.5t224.5 45t222.5 -46t180 -123.5t121.5 -182t45 -221.5q0 -121 -45 -226.5t-122.5 -184.5t-182 -125t-225.5 -46t-224.5 46t-181 125t-121.5 184.5t-44 224.5zM258 1198v264h250v-264h-250zM270 553q0 -68 24.5 -129.5 t69 -107.5t103.5 -72.5t129 -26.5q68 0 128 25.5t105.5 70.5t71 105.5t25.5 128t-24.5 128t-69 106.5t-103.5 73t-126.5 27t-128 -26t-105.5 -70t-72 -104t-27 -128zM639 1198v264h250v-264h-250z" />
<glyph unicode="&#xf7;" horiz-adv-x="1351" d="M156 639v188h1040v-188h-1040zM582 287v223h188v-223h-188zM582 956v224h188v-224h-188z" />
<glyph unicode="&#xf8;" horiz-adv-x="1228" d="M25 545q0 121 46 227.5t125.5 185t187.5 123.5t228 45q70 0 138.5 -14t130.5 -49l102 139l145 -110l-102 -136q76 -80 120 -178t44 -211q0 -123 -44 -231.5t-121 -189t-183.5 -128t-231.5 -47.5q-78 0 -139 16.5t-133 45.5l-109 -146l-141 109l107 145l-15 15l-56 69 q-26 33 -46 78q-25 55 -39 119t-14 123zM272 551q0 -57 20.5 -109.5t57.5 -97.5l379 512q-33 12 -61.5 20.5t-63.5 8.5q-72 0 -132 -25.5t-104 -71t-70 -106.5t-26 -131zM496 238q29 -10 55.5 -17.5t54.5 -7.5q72 0 133.5 24.5t107.5 69.5t71.5 106.5t25.5 133.5 q0 53 -20.5 104t-53.5 92z" />
<glyph unicode="&#xf9;" horiz-adv-x="1310" d="M27 860v234h391v-592q0 -53 6 -106.5t37 -98.5q31 -47 80 -70.5t104 -23.5q53 0 102.5 24.5t81.5 65.5q35 49 41.5 103.5t6.5 111.5v352h-142v234h391v-861h142v-233h-371v135q-53 -80 -143 -122t-187 -42q-88 0 -166.5 36t-136.5 104q-59 72 -77.5 149.5t-18.5 167.5 v432h-141zM309 1485l101 221l548 -295l-84 -182z" />
<glyph unicode="&#xfa;" horiz-adv-x="1310" d="M27 860v234h391v-592q0 -53 6 -106.5t37 -98.5q31 -47 80 -70.5t104 -23.5q53 0 102.5 24.5t81.5 65.5q35 49 41.5 103.5t6.5 111.5v352h-142v234h391v-861h142v-233h-371v135q-53 -80 -143 -122t-187 -42q-88 0 -166.5 36t-136.5 104q-59 72 -77.5 149.5t-18.5 167.5 v432h-141zM309 1407l543 307l109 -219l-566 -266z" />
<glyph unicode="&#xfb;" horiz-adv-x="1310" d="M27 860v234h391v-592q0 -53 6 -106.5t37 -98.5q31 -47 80 -70.5t104 -23.5q53 0 102.5 24.5t81.5 65.5q35 49 41.5 103.5t6.5 111.5v352h-142v234h391v-861h142v-233h-371v135q-53 -80 -143 -122t-187 -42q-88 0 -166.5 36t-136.5 104q-59 72 -77.5 149.5t-18.5 167.5 v432h-141zM186 1272l355 344h172l354 -344h-283l-157 153l-158 -153h-283z" />
<glyph unicode="&#xfc;" horiz-adv-x="1310" d="M27 860v234h391v-592q0 -53 6 -106.5t37 -98.5q31 -47 80 -70.5t104 -23.5q53 0 102.5 24.5t81.5 65.5q35 49 41.5 103.5t6.5 111.5v352h-142v234h391v-861h142v-233h-371v135q-53 -80 -143 -122t-187 -42q-88 0 -166.5 36t-136.5 104q-59 72 -77.5 149.5t-18.5 167.5 v432h-141zM319 1198v264h250v-264h-250zM700 1198v264h250v-264h-250z" />
<glyph unicode="&#xfd;" horiz-adv-x="1228" d="M14 860v234h516v-234h-106l194 -534l207 534h-106v234h510v-234h-137l-424 -1026h143v-233h-532v233h137l73 180l-331 846h-144zM289 1407l542 307l109 -219l-565 -266z" />
<glyph unicode="&#xfe;" horiz-adv-x="1351" d="M35 -166h139v1395h-139v233h391v-540q59 94 153.5 139t204.5 45q117 0 218.5 -44t176 -121t118.5 -179.5t44 -218.5q0 -113 -43 -214.5t-116.5 -178t-173 -121.5t-211.5 -45q-109 0 -207 42t-164 128v-320h141v-233h-532v233zM424 545q0 -68 25.5 -128.5t70.5 -105.5 t105.5 -70.5t128 -25.5t128 25.5t104.5 70.5t70.5 104.5t26.5 127t-24.5 128t-68.5 106.5t-103.5 73t-126.5 27q-70 0 -130.5 -26t-106.5 -70t-72.5 -105t-26.5 -131z" />
<glyph unicode="&#xff;" horiz-adv-x="1228" d="M14 860v234h516v-234h-106l194 -534l207 534h-106v234h510v-234h-137l-424 -1026h143v-233h-532v233h137l73 180l-331 846h-144zM299 1198v264h250v-264h-250zM680 1198v264h250v-264h-250z" />
<glyph unicode="&#x152;" horiz-adv-x="2252" d="M41 737q0 156 59.5 294t162 242.5t238.5 166t292 61.5q307 0 489 -250v211h924v-432h-279v189h-368v-369h415v-219h-415v-385h368v194h279v-440h-924v217q-88 -127 -209 -186.5t-274 -59.5q-162 0 -300.5 59.5t-239.5 163t-159.5 243.5t-58.5 300zM319 729q0 -98 37 -185 t101.5 -152.5t151.5 -103.5t185.5 -38t184.5 39t150.5 104.5t101.5 152.5t37 185t-36 187.5t-98.5 157t-148.5 108.5t-186 41q-102 0 -189.5 -40t-152 -107.5t-101.5 -158t-37 -190.5z" />
<glyph unicode="&#x153;" horiz-adv-x="2129" d="M27 551q0 121 47 225.5t127 182t186.5 122.5t226.5 45q156 0 295 -82q29 -16 49.5 -30.5t37 -30.5t31.5 -36l34 -44l10 -16q74 119 198 177t263 58q117 0 222.5 -44t184 -120.5t125.5 -180t47 -220.5l-8 -94h-899q12 -55 42 -101.5t73 -78t95 -49t110 -17.5 q160 0 264 117h285q-35 -84 -90.5 -150.5t-126 -113.5t-154.5 -73t-174 -26q-139 0 -259 58.5t-198 175.5q-72 -117 -195.5 -175.5t-259.5 -58.5q-123 0 -230 45t-187 123t-126 184.5t-46 227.5zM266 549q0 -70 28 -130.5t74 -105.5t108.5 -71.5t132 -26.5t132 26.5 t109.5 72.5t73.5 106.5t26.5 130.5t-27.5 131t-74.5 106.5t-109.5 71t-132 25.5t-132 -27t-109 -73t-73 -106t-26.5 -130zM1210 649h631q-41 111 -124 172.5t-201 61.5q-53 0 -102.5 -18.5t-89.5 -49.5t-70 -74t-44 -92z" />
<glyph unicode="&#x178;" horiz-adv-x="1392" d="M14 1229v233h566v-233h-136l246 -484l244 484h-139v233h563v-233h-146l-385 -719v-277h160v-233h-596v233h158v277l-387 719h-148zM360 1567v264h250v-264h-250zM741 1567v264h250v-264h-250z" />
<glyph unicode="&#x2c6;" d="M145 1292l355 344h172l354 -344h-283l-157 154l-158 -154h-283z" />
<glyph unicode="&#x2dc;" horiz-adv-x="1064" d="M147 1483q41 33 97.5 54.5t109.5 21.5q41 0 79 -9.5t73 -19.5q35 -12 70.5 -21.5t76.5 -9.5q45 0 84 12.5t74 42.5l121 -165q-49 -43 -106.5 -68t-123.5 -25q-43 0 -80.5 9.5t-72.5 21.5t-67.5 21.5t-65.5 9.5q-41 0 -74 -15.5t-63 -44.5z" />
<glyph unicode="&#x2013;" horiz-adv-x="1024" d="M-12 414v248h1048v-248h-1048z" />
<glyph unicode="&#x2014;" horiz-adv-x="2048" d="M-12 414v248h2072v-248h-2072z" />
<glyph unicode="&#x2018;" horiz-adv-x="409" d="M74 879v329q0 53 7 100.5t42 92.5q37 45 77 53t93 8h39v-139l-25 2q-31 0 -48 -11t-25.5 -29.5t-10.5 -42t-2 -46.5v-29h111v-288h-258z" />
<glyph unicode="&#x2019;" horiz-adv-x="409" d="M72 1174v288h260v-329q0 -53 -8.5 -100.5t-42.5 -90.5q-35 -45 -75 -54t-93 -9h-39v139l24 -2q31 0 48.5 11t25.5 29.5t10 42t2 48.5v27h-112z" />
<glyph unicode="&#x201a;" horiz-adv-x="409" d="M74 0v289h258v-328q0 -55 -7.5 -102t-41.5 -90q-37 -45 -77 -54.5t-93 -9.5h-39v139h26q31 0 48.5 11.5t24.5 30t9 41t2 46.5v27h-110z" />
<glyph unicode="&#x201c;" horiz-adv-x="778" d="M72 879v329q0 53 6 100.5t45 92.5q37 43 77 52t93 9h39v-139l-27 2q-31 0 -48 -11t-24.5 -29.5t-9.5 -42t-2 -48.5v-27h111v-288h-260zM451 879v329q0 53 8 100.5t43 92.5q37 45 76.5 53t93.5 8h39v-139l-27 2q-31 0 -48.5 -11t-24.5 -29.5t-9 -42t-2 -46.5v-29h111v-288 h-260z" />
<glyph unicode="&#x201d;" horiz-adv-x="778" d="M72 1174v288h260v-329q0 -53 -8.5 -100.5t-42.5 -90.5q-35 -45 -75 -54t-93 -9h-39v139l24 -2q31 0 48.5 11t25.5 29.5t10 42t2 48.5v27h-112zM451 1174v288h260v-329q0 -53 -8.5 -100.5t-43.5 -90.5q-35 -45 -74.5 -54t-92.5 -9h-39v139l24 -2q31 0 48.5 11t25.5 29.5 t10 42t2 48.5v27h-112z" />
<glyph unicode="&#x201e;" horiz-adv-x="778" d="M72 0v289h258v-330q0 -53 -6.5 -100t-42.5 -92q-35 -43 -75 -52.5t-93 -9.5h-39v139l24 -2q31 0 48.5 11.5t25.5 30t10 42t2 47.5v27h-112zM451 0v289h258v-328q0 -55 -6.5 -102t-43.5 -90q-35 -45 -74.5 -54.5t-92.5 -9.5h-39v139h24q31 0 48.5 11.5t25.5 30t10 41 t2 46.5v27h-112z" />
<glyph unicode="&#x2022;" horiz-adv-x="1228" d="M289 367v731h651v-731h-651z" />
<glyph unicode="&#x2026;" horiz-adv-x="2048" d="M213 0v289h258v-289h-258zM895 0v289h258v-289h-258zM1577 0v289h258v-289h-258z" />
<glyph unicode="&#x2039;" horiz-adv-x="409" d="M74 451v194l252 291l12 -236l-131 -161l131 -160l-12 -221z" />
<glyph unicode="&#x203a;" horiz-adv-x="409" d="M74 379l129 160l-129 161l10 236l254 -291v-194l-254 -293z" />
<glyph unicode="&#x20ac;" d="M0 578v116h133v49v30q0 13 2 30h-135v117h143q16 123 56.5 229t104 184t151.5 123t200 45q92 0 166 -44t111 -136v147h188v-475h-235q-10 76 -33 126t-52.5 79t-65.5 41t-75 12q-57 0 -100 -25.5t-72.5 -70.5t-48 -105.5t-26.5 -129.5h372v-117h-381q-2 -16 -2 -31v-31 v-47h383v-116h-374q6 -74 23.5 -138.5t47 -112.5t75.5 -77t112 -29q113 0 171 71t74 189h236q-18 -143 -61.5 -240.5t-105.5 -157.5t-143 -86t-173 -26q-100 0 -207 49.5t-187 163.5q-55 80 -86.5 181.5t-44.5 212.5h-141z" />
<glyph unicode="&#x2122;" horiz-adv-x="2007" d="M0 1346v116h676v-116h-264v-717h-146v717h-266zM823 629v833h213l238 -588l250 588h209v-833h-129v717l-289 -717h-78l-283 717v-717h-131z" />
<glyph unicode="&#xe000;" horiz-adv-x="1095" d="M0 1095h1095v-1095h-1095v1095z" />
<glyph unicode="&#xfb01;" horiz-adv-x="1105" d="M35 0v233h141v627h-141v234h141v15q0 199 106 295q107 97 310 97h8v-219h-14q-87 0 -125 -46q-36 -44 -36 -119q0 -11 1 -23h532v-861h142v-233h-1065zM426 233h283v627h-283v-627zM709 1198v264h249v-264h-249z" />
<glyph unicode="&#xfb02;" horiz-adv-x="1105" d="M35 0v233h141v627h-141v234h141q0 117 30 194.5t87 124.5t140 67.5t192 20.5h331v-1268h142v-233h-1063zM426 233h281v1049h-54q-55 0 -98 -5t-72.5 -23.5t-44.5 -56.5q-13 -33 -12 -87v-16h143v-234h-143v-627z" />
<glyph unicode="&#xfb03;" horiz-adv-x="1925" d="M35 0v233h141v627h-141v234h141q-2 207 107.5 307t316.5 100v-223h-8q-90 0 -129 -47q-37 -45 -37 -122v-15h143v-234h-143v-627h143v-233h-534zM690 0v233h141v627h-141v234h141q-2 207 108 307t316 100v-223h-7q-90 0 -130 -47q-37 -45 -37 -122v-15h144v-234h-144 v-627h144v-233h-535zM1350 0v233h143v627h-141v234h391v-861h141v-233h-534zM1493 1198v264h250v-264h-250z" />
<glyph unicode="&#xfb04;" horiz-adv-x="1925" d="M35 0v233h141v627h-141v234h141q-2 207 107.5 307t316.5 100v-223h-8q-90 0 -129 -47q-37 -45 -37 -122v-15h143v-234h-143v-627h143v-233h-534zM690 0v233h141v627h-141v234h141q-2 207 108 307t316 100v-223h-7q-90 0 -130 -47q-37 -45 -37 -122v-15h144v-234h-144 v-627h144v-233h-535zM1346 0v233h151v996h-141v233h391v-1229h141v-233h-542z" />
</font>
</defs>
</svg>
